<svg width="56" height="56" viewBox="0 0 56 56" fill="none" xmlns="http://www.w3.org/2000/svg">
<path d="M28 0C12.5375 0 0 12.5375 0 28C0 43.4625 12.5375 56 28 56C43.4625 56 56 43.4625 56 28C56 12.5375 43.4625 0 28 0ZM38.3375 38.6375L34.2125 38.6188L28 31.2125L21.7938 38.6125L17.6625 38.6312C17.3875 38.6312 17.1625 38.4125 17.1625 38.1312C17.1625 38.0125 17.2062 37.9 17.2812 37.8063L25.4125 28.1188L17.2812 18.4375C17.2057 18.3459 17.1638 18.2312 17.1625 18.1125C17.1625 17.8375 17.3875 17.6125 17.6625 17.6125L21.7938 17.6313L28 25.0375L34.2062 17.6375L38.3312 17.6187C38.6063 17.6187 38.8312 17.8375 38.8312 18.1187C38.8312 18.2375 38.7875 18.35 38.7125 18.4438L30.5938 28.125L38.7188 37.8125C38.7938 37.9062 38.8375 38.0187 38.8375 38.1375C38.8375 38.4125 38.6125 38.6375 38.3375 38.6375Z" fill="url(#paint0_linear_142_51)"/>
<defs>
<linearGradient id="paint0_linear_142_51" x1="76.72" y1="97.6" x2="-6.34618" y2="91.4492" gradientUnits="userSpaceOnUse">
<stop stop-color="#FFDE59"/>
<stop offset="1" stop-color="#DCA553"/>
</linearGradient>
</defs>
</svg>
