<?xml version="1.0" standalone="no"?>
<!DOCTYPE svg PUBLIC "-//W3C//DTD SVG 20010904//EN"
 "http://www.w3.org/TR/2001/REC-SVG-20010904/DTD/svg10.dtd">
<svg version="1.0" xmlns="http://www.w3.org/2000/svg"
 width="700.000000pt" height="700.000000pt" viewBox="0 0 700.000000 700.000000"
 preserveAspectRatio="xMidYMid meet">
<metadata>
Created by potrace 1.14, written by Peter Selinger 2001-2017
</metadata>
<g transform="translate(0.000000,700.000000) scale(0.100000,-0.100000)"
fill="#000000" stroke="none">
<path d="M1885 4638 c-2 -7 -11 -49 -20 -93 -38 -182 -175 -536 -290 -751 -53
-99 -58 -104 -98 -114 -223 -57 -321 -92 -314 -113 5 -14 6 -14 83 17 74 31
244 77 244 67 0 -4 -35 -61 -78 -127 -161 -245 -379 -476 -515 -546 -26 -13
-62 -21 -95 -22 -49 0 -57 3 -83 32 -19 22 -29 43 -29 65 0 47 42 130 94 185
47 50 57 72 32 72 -19 0 -100 -90 -126 -140 -30 -59 -37 -137 -16 -178 25 -47
66 -65 146 -60 88 5 151 42 283 168 121 116 232 251 350 430 l89 135 107 17
c58 9 128 18 156 20 l50 3 7 -70 c11 -95 62 -298 103 -404 77 -202 166 -351
268 -447 100 -95 167 -127 277 -131 l85 -3 -60 15 c-86 22 -155 74 -229 172
-100 134 -175 303 -231 522 -27 107 -55 269 -55 319 0 31 1 32 43 32 71 0 148
-28 184 -67 27 -28 33 -42 33 -79 0 -48 16 -59 26 -19 13 54 -28 120 -95 154
-40 21 -126 41 -173 41 l-31 0 6 293 c3 168 12 348 21 425 18 148 15 164 -35
181 -43 15 -109 14 -114 -1z m-27 -344 c-7 -52 -13 -187 -13 -322 0 -225 -1
-233 -20 -237 -39 -7 -250 -34 -252 -31 -1 1 31 69 73 151 69 139 175 394 205
493 19 64 21 44 7 -54z"/>
<path d="M4353 3970 c-87 -40 -134 -128 -141 -262 -4 -88 16 -187 54 -261 18
-33 10 -50 -49 -114 -43 -46 -102 -83 -135 -83 -17 0 -18 7 -14 105 4 98 3
108 -23 160 -47 97 -153 141 -240 99 -39 -18 -75 -65 -75 -99 0 -11 -15 -32
-33 -46 -18 -14 -45 -50 -61 -80 -35 -67 -189 -299 -197 -299 -9 0 -29 165
-36 290 -6 114 -14 130 -65 130 -23 0 -28 -4 -28 -25 0 -33 -11 -31 -32 5 -37
65 -116 86 -193 51 -59 -27 -82 -58 -194 -276 -160 -311 -265 -485 -292 -485
-32 0 19 264 95 492 20 59 36 116 36 127 0 31 -71 83 -155 115 -66 25 -76 32
-72 50 3 12 15 59 27 105 38 144 18 251 -47 251 -73 0 -153 -99 -153 -190 0
-70 65 -173 121 -192 10 -3 7 -18 -14 -66 -32 -75 -18 -83 19 -9 15 28 28 54
30 56 5 6 67 -21 87 -37 26 -23 21 -60 -27 -184 -50 -130 -53 -144 -66 -241
-22 -180 38 -335 124 -313 33 8 109 123 229 349 l94 177 6 -72 c8 -98 56 -195
109 -221 26 -13 47 -16 73 -11 75 14 124 82 169 236 14 46 25 77 25 70 1 -7
11 -76 22 -153 l21 -141 -38 -40 c-22 -22 -109 -99 -194 -171 -260 -222 -330
-288 -393 -366 -139 -174 -170 -338 -81 -427 51 -50 96 -66 189 -66 145 0 313
78 437 203 77 78 145 205 179 334 26 101 29 326 5 489 l-16 109 68 102 c37 56
72 111 78 121 9 15 12 6 18 -48 8 -81 26 -125 68 -174 104 -118 263 -68 347
109 30 64 33 66 85 81 57 17 140 82 165 130 17 31 27 33 36 6 3 -11 56 -95
116 -186 60 -91 109 -170 109 -174 0 -4 -32 -34 -70 -65 -98 -80 -210 -202
-240 -261 -18 -35 -25 -65 -25 -106 0 -46 4 -61 25 -83 43 -46 77 -58 149 -53
79 6 135 32 203 95 124 117 166 295 112 480 l-16 54 48 57 c26 31 68 83 93
116 35 45 47 54 49 40 17 -98 79 -184 133 -184 70 0 147 77 223 221 26 49 48
89 49 89 1 0 3 -48 5 -108 3 -130 16 -194 49 -233 26 -31 67 -38 103 -19 28
15 132 176 165 255 34 84 45 98 45 62 0 -28 24 -47 40 -31 5 5 23 61 40 124
35 130 85 238 136 299 32 37 63 53 65 34 0 -5 2 -69 3 -143 3 -149 23 -257 61
-335 59 -122 187 -121 275 2 39 55 92 171 105 231 12 59 -10 33 -35 -40 -48
-141 -155 -269 -214 -254 -34 8 -44 41 -66 229 -27 227 -55 317 -107 346 -43
22 -119 -52 -182 -177 -12 -24 -24 -42 -27 -39 -3 2 3 68 13 146 19 161 16
176 -38 176 -26 0 -36 -6 -46 -25 -13 -28 -33 -252 -33 -372 0 -94 -21 -164
-88 -292 -48 -90 -119 -176 -146 -176 -31 0 -41 41 -40 170 1 90 8 163 28 262
39 205 35 248 -24 248 -42 0 -57 -26 -64 -117 -9 -111 -33 -184 -100 -303 -64
-112 -97 -155 -140 -181 -26 -16 -32 -16 -56 -4 -42 22 -60 71 -60 162 0 88
24 290 41 341 9 26 8 37 -5 57 -18 27 -57 33 -74 12 -14 -17 -42 -227 -42
-314 0 -65 -1 -68 -57 -142 -32 -42 -75 -95 -96 -118 l-39 -43 -71 103 c-38
56 -96 137 -128 179 -33 42 -68 92 -79 111 l-20 34 30 76 c37 93 70 227 70
287 0 81 -40 111 -107 80z m77 -44 c12 -33 -3 -128 -41 -246 -36 -115 -45
-131 -59 -110 -35 52 -38 218 -6 295 33 79 87 110 106 61z m-1912 -132 c3 -71
-20 -189 -43 -220 -12 -17 -14 -17 -38 -1 -38 25 -53 83 -38 144 21 82 75 159
106 149 6 -1 11 -34 13 -72z m1398 -213 c50 -23 98 -80 114 -135 6 -22 10 -75
8 -116 l-3 -75 -55 1 c-80 1 -153 43 -186 107 -14 26 -14 28 13 38 15 6 43 9
61 7 27 -3 34 0 38 18 8 32 -13 91 -36 97 -10 2 -38 1 -62 -3 -23 -5 -45 -6
-47 -4 -11 11 23 57 52 69 42 19 54 18 103 -4z m-676 -86 c39 -41 58 -115 49
-185 -19 -136 -89 -290 -138 -303 -69 -18 -112 164 -80 338 26 144 107 216
169 150z m530 -144 c0 -5 15 -24 32 -42 38 -38 115 -74 176 -84 50 -8 50 -17
-3 -105 -62 -104 -146 -131 -210 -67 -33 33 -65 115 -65 167 0 32 17 86 38
118 15 22 32 30 32 13z m808 -513 c12 -202 -97 -368 -243 -368 -38 0 -52 6
-83 34 -32 30 -37 40 -37 78 0 25 11 64 25 93 27 54 185 221 260 274 l45 32
14 -33 c8 -18 16 -67 19 -110z m-1209 -48 c3 -282 -147 -602 -356 -759 -80
-60 -155 -91 -221 -91 -177 0 -211 191 -71 397 53 78 163 186 359 353 102 87
205 179 230 204 l45 47 6 -28 c4 -15 7 -71 8 -123z"/>
</g>
</svg>
