<svg width="88" height="88" viewBox="0 0 88 88" fill="none" xmlns="http://www.w3.org/2000/svg">
<g clip-path="url(#clip0_112_716)">
<path d="M38.6566 87.6838C30.8081 86.6663 22.7286 83.3003 16.8436 78.5895C3.59408 68.0185 -2.42017 51.3178 1.01733 34.7325C2.49133 27.5715 6.33033 20.0365 11.2446 14.608C14.8647 10.5339 19.2303 7.18943 24.1063 4.75475C30.5798 1.474 36.7673 0 44.0713 0C49.3128 0 53.5258 0.6875 58.3521 2.33475C64.6925 4.50957 70.4527 8.10322 75.1936 12.8418C79.9345 17.5803 83.5311 23.3387 85.7091 29.678C88.2886 37.2405 88.7588 45.2897 87.1116 53.2675C85.7943 59.5705 82.3981 66.66 78.2181 71.786C76.4993 73.9063 72.5448 77.6875 70.4686 79.2193C64.2571 83.8324 56.9521 86.7495 49.2716 87.6838C47.0083 87.9697 40.8483 87.956 38.6593 87.6838H38.6566ZM50.6466 84.0043C61.3669 82.2075 70.9345 76.2258 77.2446 67.375C84.6778 56.9333 86.6688 42.9248 82.4723 30.7093C81.4851 27.8438 79.0348 23.0615 77.2446 20.5398C75.2536 17.7183 70.3256 12.7765 67.4903 10.7855C64.7403 8.8385 60.0571 6.4735 56.8616 5.4285C51.0934 3.51213 44.9684 2.9163 38.939 3.68502C32.9097 4.45375 27.1301 6.56738 22.0273 9.86975C17.2263 13.0235 13.1223 17.1275 9.96858 21.9285C6.66705 27.0285 4.55383 32.8053 3.78509 38.8319C3.01636 44.8585 3.61178 50.9807 5.52733 56.7463C6.58608 59.939 8.95108 64.6388 10.8843 67.3888C12.8891 70.2103 17.8171 75.152 20.6386 77.143C23.1741 78.9195 27.9426 81.367 30.8081 82.3708C37.1861 84.5377 44 85.0987 50.6466 84.0043ZM35.4061 69.2505C33.35 68.9405 31.3775 68.2194 29.6063 67.1303C28.0168 66.1128 16.0131 54.3538 15.4273 53.251C14.7536 51.9915 15.9278 49.698 17.6053 48.9968L18.3918 48.6668L15.9718 46.2028C14.6408 44.8415 13.3786 43.395 13.1778 42.9935C12.7048 42.0778 12.6911 40.1143 13.1338 39.2398C13.3208 38.8823 13.7636 38.3378 14.1073 38.0353C14.6958 37.5485 14.7508 37.3753 14.6958 36.1433C14.6243 35.0543 14.7233 34.6253 15.1963 33.8085C15.8838 32.6343 17.3028 31.845 18.6916 31.8313C19.4643 31.8313 19.6651 31.7323 19.9951 31.1575C20.8558 29.6533 23.3171 29.1088 25.1953 30.0273L26.2128 30.514L26.7133 30.0273C27.4008 29.3975 28.7758 28.8393 29.6778 28.8393C31.4818 28.8393 34.0311 30.9155 34.0311 32.3758C34.0311 34.122 32.4416 34.4245 30.8658 32.978C29.8208 32.0045 29.2901 31.9028 28.8611 32.5903C28.6466 32.9203 29.1608 33.5363 32.2408 36.6438C35.3208 39.7375 35.8791 40.3975 35.8791 40.9833C35.8547 41.4322 35.6636 41.856 35.3431 42.1714C35.0226 42.4868 34.5959 42.6711 34.1466 42.6883C33.5883 42.6883 32.6726 41.8853 28.4458 37.675C24.1338 33.3768 23.3473 32.6893 23.0036 32.9065C22.0713 33.495 22.3876 33.924 27.4283 38.9785C30.1646 41.7285 32.4141 44.1623 32.4141 44.3933C32.4141 44.8663 31.9851 45.7408 31.6276 45.969C31.3343 46.0978 31.0153 46.1571 30.6953 46.1423C30.1068 46.156 29.2048 45.3393 24.4088 40.557C19.5963 35.772 18.7356 34.9993 18.3918 35.2138C17.4458 35.816 17.7621 36.2313 23.2483 41.745C26.2431 44.7398 28.7483 47.4183 28.8198 47.7043C28.9766 48.2212 28.6328 49.1233 28.1763 49.4368C27.8734 49.5656 27.5454 49.6248 27.2166 49.61C26.6281 49.61 25.8856 48.9665 21.9173 44.9983C18.0921 41.173 17.2038 40.3865 16.7171 40.4305C15.3421 40.5873 15.8288 41.2033 22.9321 48.323C29.0921 54.4967 29.8786 55.3713 29.8786 56.0148C29.8848 56.251 29.8317 56.4851 29.724 56.6955C29.6164 56.9059 29.4578 57.086 29.2626 57.2193C28.1598 58.0938 27.7308 57.893 24.9506 55.2008C23.5316 53.8395 22.0713 52.5223 21.6836 52.2775C20.9823 51.8485 19.2058 51.6615 18.8758 52.0053C18.7603 52.1043 21.3811 54.8708 24.6921 58.1488C30.2058 63.6048 30.8356 64.1657 32.4553 64.9385C33.9475 65.6815 35.5908 66.0705 37.2577 66.0753C38.9246 66.0801 40.5702 65.7005 42.0666 64.966C46.6921 62.7605 49.2578 57.4035 47.9956 52.547C47.3658 50.127 46.5766 48.9665 43.3976 45.6858C39.7318 41.932 38.8848 40.9008 37.9828 39.0968C36.9791 37.0783 36.5501 35.1148 36.5501 32.6645C36.5501 30.0135 36.8223 28.8118 37.9966 26.334C39.1131 23.9718 41.4478 21.494 43.7551 20.218C48.2816 17.6963 54.2408 17.9108 58.5638 20.735C59.4246 21.2933 62.5321 24.2165 66.3986 28.0968C72.1433 33.8553 72.8006 34.6005 72.8006 35.2578C72.8006 36.8198 71.5246 38.5523 70.1083 38.9098C69.5776 39.0528 69.6793 39.1958 72.0856 41.646C73.4881 43.065 74.7916 44.5968 74.9923 45.0698C75.6661 46.6895 75.3636 48.2625 74.1316 49.5523C73.5018 50.2123 73.4166 50.4405 73.4001 51.7578C73.3863 52.9183 73.2571 53.405 72.7978 54.065C72.4351 54.6019 71.9494 55.0445 71.3812 55.3559C70.8129 55.6672 70.1786 55.8385 69.5308 55.8553C68.6426 55.8553 68.4721 55.9405 68.0266 56.6143C67.0228 58.1625 64.4158 58.7043 62.7273 57.7033L61.8831 57.2028L61.2808 57.7913C59.9498 59.0673 57.7993 59.2378 56.1686 58.1928C54.8513 57.3623 53.8778 56.2018 53.8778 55.4703C53.8778 54.8268 54.8101 53.7653 55.3821 53.7653C55.9266 53.7653 56.6581 54.1943 57.4886 54.9697C58.3191 55.7563 59.0368 55.7563 59.1496 54.956C59.2073 54.527 58.5198 53.7103 55.7396 50.9163C52.8163 47.9655 52.2581 47.2917 52.2581 46.7197C52.2515 46.4004 52.3105 46.0832 52.4313 45.7875C52.7476 45.3145 53.6358 44.9845 54.1776 45.1275C54.4636 45.199 56.8836 47.4348 59.5346 50.083C62.1993 52.7478 64.5341 54.923 64.7486 54.923C65.3371 54.923 65.7221 54.3345 65.4498 53.834C65.3206 53.6058 63.0711 51.2985 60.4641 48.6915C56.3831 44.6243 55.7231 43.8653 55.7231 43.263C55.7097 42.9387 55.7689 42.6155 55.8963 42.317C56.1411 41.9595 56.9991 41.5305 57.4858 41.5305C57.7003 41.5305 60.3926 44.0357 63.4726 47.102C69.1156 52.7175 69.5308 53.031 70.1193 52.1015C70.3338 51.7578 69.5611 50.8833 64.7761 46.0845C59.8343 41.129 59.1771 40.3838 59.1771 39.7403C59.1771 39.2975 59.3778 38.8383 59.6941 38.5523C60.7391 37.565 61.0553 37.7658 66.1401 42.8203C70.9526 47.619 71.3816 47.9325 71.9701 47.0168C72.1846 46.673 71.2111 45.6143 65.2381 39.6248C58.7343 33.0935 58.2641 32.5628 58.2641 31.8038C58.2641 30.657 58.9241 30.1125 60.1973 30.2005C60.4256 30.2143 61.8006 31.3748 63.2196 32.7635C64.6523 34.1523 66.1978 35.4558 66.6571 35.6565C67.5591 36.0278 68.6041 36.0855 69.0496 35.7995C69.4786 35.5273 57.5903 23.826 56.0448 23.0093C54.7197 22.294 53.2622 21.8576 51.7621 21.7267C50.2619 21.5959 48.7509 21.7735 47.3219 22.2485C45.893 22.7235 44.5764 23.486 43.4531 24.4889C42.3299 25.4918 41.4238 26.714 40.7906 28.0803C40.0453 29.6698 39.9463 30.1428 39.8446 32.1915C39.7593 34.1248 39.8308 34.727 40.2461 35.959C40.9913 38.1508 41.6348 39.0528 44.9733 42.4628C48.5841 46.1588 49.2716 47.003 50.1873 48.9803C52.7668 54.4803 51.6778 60.841 47.4236 65.0788C44.1868 68.3293 39.7758 69.8473 35.4061 69.2478V69.2505Z" fill="#858585"/>
</g>
<defs>
<clipPath id="clip0_112_716">
<rect width="88" height="88" fill="white"/>
</clipPath>
</defs>
</svg>
