<svg width="88" height="88" viewBox="0 0 88 88" fill="none" xmlns="http://www.w3.org/2000/svg">
<path d="M74.4992 14.6008L45.2977 4.64922C44.9453 4.52891 44.4727 4.46875 44 4.46875C43.5273 4.46875 43.0547 4.52891 42.7023 4.64922L13.5008 14.6008C12.7875 14.8414 12.2031 15.6664 12.2031 16.4227V57.8789C12.2031 58.6352 12.693 59.632 13.2859 60.1047L42.9086 83.1875C43.2094 83.4195 43.5961 83.5398 43.9914 83.5398C44.3867 83.5398 44.782 83.4195 45.0742 83.1875L74.6969 60.1047C75.2898 59.6406 75.7797 58.6437 75.7797 57.8789V16.4227C75.7969 15.6664 75.2125 14.85 74.4992 14.6008ZM69.6094 56.2289L44 76.1836L18.3906 56.2289V19.482L44 10.7508L69.6094 19.482V56.2289ZM34.7359 38.9555C34.4781 38.6031 34.0656 38.3883 33.6188 38.3883H28.875C28.3164 38.3883 27.9898 39.0242 28.3164 39.4797L39.1789 54.4328C39.3073 54.6086 39.4755 54.7516 39.6696 54.8502C39.8637 54.9488 40.0784 55.0002 40.2961 55.0002C40.5138 55.0002 40.7285 54.9488 40.9226 54.8502C41.1167 54.7516 41.2848 54.6086 41.4133 54.4328L59.6836 29.2789C60.0102 28.8234 59.6836 28.1875 59.125 28.1875H54.3812C53.943 28.1875 53.5219 28.4023 53.2641 28.7547L40.2961 46.6125L34.7359 38.9555Z" fill="#858585"/>
</svg>
