<svg width="88" height="88" viewBox="0 0 88 88" fill="none" xmlns="http://www.w3.org/2000/svg">
<path d="M45.947 5.80792C45.6916 5.55182 45.3881 5.34863 45.054 5.21C44.7199 5.07136 44.3617 5 44 5C43.6383 5 43.2801 5.07136 42.946 5.21C42.6119 5.34863 42.3085 5.55182 42.053 5.80792L9.053 38.8079C8.79779 39.0638 8.59551 39.3674 8.45773 39.7015C8.31995 40.0356 8.24936 40.3935 8.25 40.7549V79.2549C8.25 79.9843 8.53974 80.6837 9.05546 81.1995C9.57119 81.7152 10.2707 82.0049 11 82.0049H35.75C36.4794 82.0049 37.1788 81.7152 37.6945 81.1995C38.2103 80.6837 38.5 79.9843 38.5 79.2549V57.2549H49.5V79.2549C49.5 79.9843 49.7897 80.6837 50.3055 81.1995C50.8212 81.7152 51.5207 82.0049 52.25 82.0049H77C77.7293 82.0049 78.4288 81.7152 78.9445 81.1995C79.4603 80.6837 79.75 79.9843 79.75 79.2549V40.7549C79.7506 40.3935 79.6801 40.0356 79.5423 39.7015C79.4045 39.3674 79.2022 39.0638 78.947 38.8079L71.5 31.3664V13.2549C71.5 12.5256 71.2103 11.8261 70.6945 11.3104C70.1788 10.7946 69.4794 10.5049 68.75 10.5049H63.25C62.5207 10.5049 61.8212 10.7946 61.3055 11.3104C60.7897 11.8261 60.5 12.5256 60.5 13.2549V20.3664L45.947 5.80792ZM13.75 76.5049V41.8934L44 11.6434L74.25 41.8934V76.5049H55V54.5049C55 53.7756 54.7103 53.0761 54.1945 52.5604C53.6788 52.0446 52.9794 51.7549 52.25 51.7549H35.75C35.0207 51.7549 34.3212 52.0446 33.8055 52.5604C33.2897 53.0761 33 53.7756 33 54.5049V76.5049H13.75Z" fill="#858585"/>
</svg>
