<svg width="88" height="88" viewBox="0 0 88 88" fill="none" xmlns="http://www.w3.org/2000/svg">
<path d="M19.25 27.1456V76.7886H68.75V27.1456L47.4815 9.74358C46.4991 8.94027 45.2691 8.50141 44 8.50141C42.7309 8.50141 41.5009 8.94027 40.5185 9.74358L19.25 27.1456ZM50.963 5.48658L73.238 23.7136C73.5539 23.9712 73.8086 24.2958 73.9836 24.6639C74.1586 25.032 74.2496 25.4345 74.25 25.8421V79.5386C74.25 80.2679 73.9603 80.9674 73.4445 81.4831C72.9288 81.9988 72.2293 82.2886 71.5 82.2886H16.5C15.7707 82.2886 15.0712 81.9988 14.5555 81.4831C14.0397 80.9674 13.75 80.2679 13.75 79.5386V25.8421C13.7497 25.4349 13.8399 25.0328 14.0139 24.6647C14.188 24.2966 14.4416 23.9717 14.7565 23.7136L37.0315 5.48658C38.9968 3.87855 41.4579 3 43.9972 3C46.5366 3 48.9977 3.87855 50.963 5.48658Z" fill="#858585"/>
<path d="M44 38.5C45.4587 38.5 46.8576 37.9205 47.8891 36.8891C48.9205 35.8576 49.5 34.4587 49.5 33C49.5 31.5413 48.9205 30.1424 47.8891 29.1109C46.8576 28.0795 45.4587 27.5 44 27.5C42.5413 27.5 41.1424 28.0795 40.1109 29.1109C39.0795 30.1424 38.5 31.5413 38.5 33C38.5 34.4587 39.0795 35.8576 40.1109 36.8891C41.1424 37.9205 42.5413 38.5 44 38.5ZM44 44C41.0826 44 38.2847 42.8411 36.2218 40.7782C34.1589 38.7153 33 35.9174 33 33C33 30.0826 34.1589 27.2847 36.2218 25.2218C38.2847 23.1589 41.0826 22 44 22C46.9174 22 49.7153 23.1589 51.7782 25.2218C53.8411 27.2847 55 30.0826 55 33C55 35.9174 53.8411 38.7153 51.7782 40.7782C49.7153 42.8411 46.9174 44 44 44Z" fill="#858585"/>
</svg>
