<svg width="72" height="72" viewBox="0 0 72 72" fill="none" xmlns="http://www.w3.org/2000/svg">
<g clip-path="url(#clip0_112_818)">
<path d="M89.9548 -18.4988H-18.8613V90.3173H89.9548V-18.4988Z" fill="white"/>
<path d="M35.5467 -18.4988C65.5981 -18.4988 89.9548 5.8579 89.9548 35.9093C89.9548 65.9607 65.5981 90.3173 35.5467 90.3173C5.49535 90.3173 -18.8613 65.9607 -18.8613 35.9093C-18.8613 5.8579 5.49535 -18.4988 35.5467 -18.4988Z" fill="#FFF7F4"/>
<path d="M64.9087 57.346C65.1807 56.7294 65.3802 56.0765 65.5797 55.4598C65.6885 55.1515 66.0875 54.408 65.7974 54.5712C65.2351 54.9339 64.7999 55.4054 64.4916 56.0039C64.1651 56.0765 63.8931 56.2578 63.6754 56.5299C63.4578 56.7838 63.2765 57.0558 63.1314 57.346C62.95 57.618 62.7505 57.8719 62.5329 58.0896C62.4059 58.2165 62.2608 58.3616 62.1157 58.4886C61.9707 58.6155 61.8074 58.7243 61.6623 58.8331C61.3722 59.0508 61.082 59.2321 60.7556 59.3954C60.5561 59.486 60.3384 59.5586 60.1208 59.5767C60.9913 58.7243 61.8437 57.8357 62.6598 56.9107C63.077 56.9289 63.1858 56.4573 63.3853 56.1309C63.5848 55.8226 63.8205 55.5324 64.0926 55.2604C64.2195 55.1334 64.3102 54.9883 64.4009 54.8432C64.4734 54.6981 64.5097 54.553 64.5097 54.3898C64.4916 54.1541 64.5278 53.9183 64.6185 53.6825C64.6548 53.6281 64.6729 53.5556 64.6911 53.5012C64.7999 53.3017 64.9087 53.1022 65.0357 52.9208C65.217 52.5581 65.3621 52.1954 65.4709 51.8145C65.3984 51.8508 65.3258 51.8871 65.2533 51.9415C65.1445 52.0321 65.0357 52.141 64.945 52.2316C64.9631 52.0865 64.9994 51.9415 65.0175 51.8145C65.0175 51.742 65.0357 51.6694 65.0175 51.5787C65.0357 51.5787 65.0538 51.5787 65.0719 51.5606C65.2351 51.4336 65.3802 51.3067 65.5072 51.1797C65.6341 51.0347 65.7611 50.8896 65.8518 50.7263C66.0875 50.3636 66.2145 49.9828 66.2689 49.5656C66.3052 49.1122 66.3959 49.0397 66.7042 49.1304C66.6498 48.9672 66.6316 48.8039 66.686 48.6407C66.7404 48.4775 66.813 48.3324 66.9399 48.2054C67.0306 48.0603 67.085 47.8971 67.1032 47.7339C67.1032 47.5888 67.0306 47.5163 66.9762 47.4075C66.8855 47.5525 66.813 47.6976 66.7223 47.8427C66.5047 48.3505 66.2508 48.8402 65.9969 49.3299C66.0331 49.1848 66.1057 49.0397 66.2145 48.9127C66.3233 48.5319 66.4321 48.0966 66.5409 47.6614C66.0513 48.0966 65.8155 48.8946 65.4709 49.5838C65.0175 50.4543 65.7067 49.6563 65.616 50.0009C65.6341 50.0009 65.6523 49.9828 65.6704 49.9828C65.5072 50.2911 65.3258 50.5994 65.1626 50.9077C65.0538 51.1253 64.9812 51.343 64.9268 51.5787C64.9268 51.5787 64.9631 51.5969 64.9994 51.5969C64.945 51.6876 64.8724 51.7601 64.7999 51.8326C64.6367 51.9777 64.5097 52.141 64.419 52.3405C64.3646 52.4311 64.3283 52.5218 64.2739 52.6125L64.2558 52.6306C64.2921 52.5581 64.3283 52.4855 64.3646 52.3949C64.4553 52.1954 64.6004 51.7601 64.3828 52.0321C64.2014 52.286 64.0019 52.5399 63.8205 52.7757C63.6392 53.0115 63.4215 53.2654 63.222 53.5012C63.222 53.4649 63.2402 53.4105 63.2583 53.3742C63.7843 52.5218 64.2921 51.6513 64.7636 50.7626L64.9087 50.4362L65.0175 50.2367C65.3258 49.6382 65.5616 49.0216 65.8336 48.4049C65.9606 48.1148 66.0694 47.8064 66.1782 47.5344L66.5047 46.6457L66.7948 45.7571C66.8855 45.4488 66.9943 45.1586 67.0669 44.8503C67.1576 44.5782 67.1576 44.415 67.0125 44.3787C67.0306 44.0523 67.1394 43.744 67.3208 43.4719C67.3389 43.4357 67.3752 43.3994 67.3933 43.345C67.3208 43.7802 67.2301 44.2155 67.1394 44.6326C67.0669 44.941 67.0669 45.1404 67.212 45.1404C67.2845 45.1404 67.4115 45.1404 67.4296 45.1042C67.9737 43.2906 68.4815 41.3863 68.5178 39.5364C68.5178 38.811 68.4815 38.4664 68.4815 38.2488C68.4634 38.0493 68.5178 37.8679 68.6447 37.7047C68.6629 37.6684 68.681 37.614 68.6991 37.5596C68.8079 36.0362 68.8805 34.4946 68.554 32.9712C68.5178 32.6991 68.4634 32.4271 68.409 32.1369C68.409 31.8467 68.3908 31.5566 68.3908 31.2664C68.3727 30.9762 68.3364 30.686 68.3001 30.3959C68.2276 29.8155 68.1188 29.2352 67.9737 28.6729C67.9011 28.3828 67.8286 28.1107 67.7379 27.8205C67.6472 27.5304 67.5747 27.2583 67.484 26.9682C67.2845 26.4059 67.1032 25.8619 66.8674 25.3178L66.8311 25.209C66.6316 24.5923 66.3959 23.9938 66.1601 23.3772C66.0331 23.0689 65.9062 22.7787 65.7792 22.4704L65.5797 22.017L65.3621 21.5818C65.2351 21.2916 65.0901 21.0195 64.9268 20.7475C64.7455 20.4936 64.5641 20.2397 64.3828 20.0039L63.8387 19.2603C63.6573 19.0064 63.4941 18.7344 63.3671 18.4442L62.9319 17.7913L62.8231 17.5918L62.5873 17.2835L62.3515 16.9933L61.8618 16.3949C61.5354 15.9959 61.1727 15.615 60.8462 15.216C59.3772 13.5475 57.7812 12.0422 56.0039 10.7001C56.1127 10.9722 56.149 11.1717 56.0765 11.2624C56.149 11.1717 56.1127 10.9722 56.0039 10.7001L55.6231 10.3918C55.4961 10.283 55.351 10.1923 55.2241 10.1017C54.952 9.90216 54.6981 9.7208 54.4261 9.53944C52.7032 8.43314 50.8896 7.32685 48.9309 6.83717C48.5137 6.45632 47.9334 6.29309 47.3349 6.14801L46.0472 5.71274C45.9203 5.67647 45.7752 5.6402 45.6482 5.62206L44.4513 5.29561C43.8709 5.15052 43.2906 4.9873 42.6921 4.84221L41.6946 4.49763H42.0392C42.3475 4.55204 42.6558 4.60644 42.9823 4.66085L43.9072 4.86035C44.5238 4.9873 45.1404 5.16866 45.7571 5.29561C47.5163 5.73088 49.2029 6.31123 50.8533 7.05481C52.7757 7.92534 54.6618 8.94095 56.3666 10.2649C56.6568 10.5007 56.9833 10.7183 57.3097 10.9541C57.618 11.1898 57.9626 11.4256 58.2709 11.6432C58.8694 12.0785 59.4316 12.5682 59.9394 13.1122C60.9369 14.2367 61.6261 14.8533 62.5329 15.4881C62.5691 15.5243 62.6054 15.5606 62.6236 15.5969C62.7868 15.8508 62.95 16.1228 63.1314 16.3767C63.222 16.5037 63.2946 16.6306 63.3853 16.7576C63.4578 16.8664 63.5485 16.9752 63.6392 17.084C63.6936 17.1566 63.748 17.211 63.8205 17.2473C63.8931 17.2835 63.9656 17.3379 64.0382 17.3561C64.1107 17.3742 64.2014 17.3923 64.2739 17.3923C64.3646 17.3923 64.4372 17.3742 64.5097 17.3561C64.6548 17.3379 64.7999 17.3379 64.945 17.3742C65.1082 17.4105 65.2714 17.4649 65.4346 17.5193C65.4891 17.5918 65.5435 17.6825 65.5797 17.7732C65.4346 17.9001 65.3258 18.1359 65.0901 18.0996C64.8543 18.0634 64.7636 18.009 65.0719 18.4442L64.7636 18.5712C64.9631 18.8069 65.1807 19.0971 65.344 19.2966C65.616 19.6049 65.9062 19.7137 66.1782 20.2578C66.9943 21.9263 67.883 23.5223 68.681 25.0095C68.8079 25.209 68.953 25.753 69.1707 26.1158C69.3883 26.4785 69.6241 26.6417 69.8961 26.0432C69.8598 26.3878 69.8236 26.6054 69.7873 26.7868L69.7147 27.1858C69.8417 27.4216 69.9505 27.6755 70.0231 27.9475C70.1137 28.2014 70.2044 28.4009 70.3314 28.2377C70.4039 28.1289 70.4402 28.02 70.422 27.8931C70.422 27.7299 70.3858 27.5666 70.3495 27.4216C70.2588 27.077 70.1137 26.6961 70.0049 26.3878C69.6059 25.2271 69.0981 24.1027 68.6084 22.9782C67.1757 19.6231 65.2533 16.5581 62.8593 13.8014C62.678 13.5838 62.4785 13.3661 62.279 13.1666L61.6805 12.5319C61.2634 12.1148 60.8462 11.7158 60.4291 11.3168L59.4679 10.3737C59.2684 10.1923 59.0689 10.0291 58.8694 9.86589C57.1465 8.50569 55.3329 7.10922 53.3016 6.32937C53.1384 6.20241 52.9933 6.0936 52.8301 5.96665C52.6669 5.85783 52.5037 5.74901 52.3223 5.6402C52.1591 5.53138 51.9777 5.42256 51.7964 5.35002C51.615 5.25934 51.4155 5.16866 51.1979 5.11425L50.3817 4.80594C50.1097 4.69712 49.8377 4.58831 49.5656 4.51576C48.8765 4.22559 48.1873 3.97168 47.48 3.73592C47.3168 3.64524 47.1173 3.53642 46.8634 3.40947L46.4825 3.22811L46.0654 3.08302C45.7752 2.9742 45.4487 2.84725 45.1223 2.73843C44.9772 2.68403 44.8503 2.64775 44.7052 2.61148C45.0316 2.68403 45.3762 2.75657 45.7027 2.84725L46.5732 2.90166L45.7027 2.84725L46.6457 3.08302L47.5707 3.35506L47.8064 3.4276C48.4049 3.66337 48.8583 3.73592 49.0941 3.60896C49.2573 3.51828 48.949 3.28251 48.55 3.10115L48.2054 2.93793C48.3505 2.93793 48.4956 2.93793 48.6407 2.95607L49.0578 2.99234C49.4749 3.02861 50.2911 3.20997 50.0372 2.93793C49.7651 2.66589 49.4568 2.43012 49.1122 2.24876C48.6588 2.01299 48.1873 1.86791 47.6976 1.77723L47.1717 1.59586L46.6276 1.45078L45.5394 1.14246C45.1767 1.03365 44.814 0.961105 44.4513 0.88856C44.0885 0.79788 43.7258 0.7072 43.345 0.652792C42.6014 0.52584 41.8759 0.362615 41.1324 0.290071C40.7697 0.235663 40.3888 0.181255 40.0261 0.144983L38.9016 0.0543031L38.3394 0.018031L37.7772 -0.000104774L36.6528 -0.036377C36.2719 -0.036377 35.9092 -0.0182405 35.5283 -0.0182405C35.1475 -0.0182405 34.7848 -0.000105053 34.4039 0.018031C33.8961 0.054303 33.352 0.0724394 32.8442 0.126848L31.2845 0.290071L31.2664 0.308208L30.5591 0.380751C28.8906 0.61652 27.2583 0.97924 25.6442 1.45078L25.3903 1.54146L24.5198 1.83163C24.2115 1.92231 23.9394 2.04927 23.6493 2.15808L22.6699 2.53894L21.6906 2.95607C21.0377 3.22811 20.4029 3.55456 19.7681 3.86287C19.4417 4.00796 19.1515 4.18932 18.8251 4.37068L17.9001 4.89662L17.0115 5.45884C16.7032 5.6402 16.413 5.82156 16.1228 6.03919C15.6875 6.3475 15.0165 6.58327 15.0346 7.0004C14.7445 7.21803 14.4362 7.39939 14.1278 7.59889C13.8014 7.78025 13.5475 8.03415 13.3299 8.34246C12.9309 8.59637 12.5319 8.814 12.1329 9.08604C11.7158 9.39435 11.3712 9.73894 11.081 10.1561C10.7908 10.3918 10.5006 10.6276 10.2286 10.8996C9.95656 11.1535 9.70265 11.4075 9.44875 11.6795C9.19485 11.9515 8.95908 12.2417 8.72331 12.5319C8.48754 12.8221 8.26991 13.1122 8.05228 13.4205L7.5082 14.1097C7.32684 14.3455 7.14548 14.5631 6.96412 14.817C6.61953 15.3067 6.25681 15.7601 5.9485 16.2679L5.76714 16.7938L6.11172 16.5581L6.12986 16.5399C6.16613 16.6488 6.18427 16.7576 6.22054 16.8845C6.2024 16.7576 6.16613 16.6669 6.12986 16.5399L6.11172 16.5581L5.76714 16.7938L5.18678 17.61C4.95102 17.9727 4.75152 18.3535 4.53389 18.7344L4.20744 19.2966L3.89913 19.877L3.30064 21.0377L2.75656 22.2165C2.66588 22.416 2.5752 22.5974 2.52079 22.815C2.46638 23.0145 2.43011 23.1959 2.39384 23.3772C2.32129 23.7399 2.28502 24.1027 2.21248 24.4654C2.06739 24.7556 1.9223 25.0639 1.79535 25.3722C1.59585 25.2996 1.48704 25.6805 1.39636 26.0614C1.30568 26.4603 1.23313 26.9319 1.16059 27.3671C1.08804 27.7843 1.0155 28.1833 0.906684 28.5823C0.761596 29.0357 0.65278 29.4891 0.543964 29.9606C0.453284 30.414 0.398876 30.8855 0.326331 31.3571L0.271924 31.7017L0.235651 32.0462L0.163108 32.7354L0.0905634 33.4246L0.018019 34.1138C-0.018253 34.7485 -0.018253 35.3651 0.018019 35.9999C0.036155 36.3082 0.0361555 36.6347 0.0361555 36.943C0.0361555 37.2694 0.036155 37.5777 0.018019 37.9223C-0.000117 38.2488 -0.0545249 38.5933 -0.0363889 38.9379C-0.0363889 39.2825 0.0180196 39.6271 0.163108 39.9535L0.199379 39.8085V39.8266L0.308196 40.1168L0.344468 40.679L0.398876 41.2412L0.525828 42.3656L0.707188 43.4901C0.761596 43.8709 0.816004 44.2336 0.906684 44.6145C0.906684 44.9228 0.997364 45.213 1.17872 45.4669C1.25127 45.5938 1.32381 45.7389 1.36008 45.884C1.41449 46.0654 1.43263 46.2467 1.41449 46.4281C1.37822 46.8452 1.43263 47.2624 1.55958 47.6614C1.70467 48.0966 1.88603 48.5138 2.1218 48.9127C2.41197 50.1279 2.77469 51.3248 3.53641 51.4337L3.66336 51.6876C3.7359 52.0321 3.57268 52.1228 3.79031 52.7032C4.42507 54.3535 5.35001 55.7863 6.34749 57.1828L6.60139 57.5636L6.61953 57.4911L6.78275 57.7268C6.92784 58.0714 7.07293 58.416 7.23616 58.7606C9.61197 61.8256 12.3505 64.5097 15.4518 66.8311C15.5243 67.0669 15.6513 67.2301 15.8689 67.3389C15.9777 67.4115 16.0865 67.4659 16.2135 67.5203C16.3404 67.5747 16.4493 67.6291 16.5581 67.6835C16.9933 67.9374 17.3923 68.2095 17.7732 68.5178C18.1903 68.7898 18.5893 69.0256 18.952 68.9893C19.2603 68.9893 19.5686 69.0256 19.8588 69.1344C20.2215 69.2614 20.5843 69.4064 20.9289 69.5878C21.4004 69.8236 21.9263 69.9143 22.4341 70.0593C22.3616 69.9868 22.2891 69.8961 22.2165 69.8417C22.0714 69.7329 21.9082 69.6241 21.7631 69.5153C21.9445 69.5334 22.1258 69.5697 22.3072 69.5878C22.4341 69.5878 22.543 69.5878 22.6518 69.5878C22.5067 69.5153 22.3616 69.4246 22.2165 69.3158C21.7994 69.0075 21.2009 68.7898 20.6205 68.5541C20.0402 68.3183 19.5324 68.01 19.3329 67.5566C19.5142 67.5566 19.6956 67.5747 19.8588 67.6291L20.3122 67.8649L20.7656 68.0825L21.6724 68.4996C21.9807 68.6447 22.2891 68.7717 22.5974 68.8986L23.5223 69.2795C23.6674 69.3339 23.8306 69.3702 23.9757 69.4246L24.2659 69.5334C24.683 69.6785 25.1001 69.8236 25.5354 69.9505L26.8231 70.3132C27.222 70.4221 27.6392 70.5127 28.0382 70.6034L28.6548 70.7304C28.8543 70.7666 29.0719 70.8029 29.2714 70.8392C29.6885 70.9117 30.0875 70.9843 30.5047 71.0568L31.7379 71.22C32.1006 71.2926 32.3364 71.2745 32.3364 71.1112C32.7717 71.075 33.2069 71.1475 33.6241 71.2926C34.0593 71.4377 34.4946 71.5284 34.948 71.5284C35.9455 71.5102 36.9611 71.474 37.9767 71.4014H38.1399V71.3833V71.4014L39.0105 71.3651C39.609 71.3651 40.2074 71.3107 40.7878 71.22C41.3863 71.1294 41.9848 71.0568 42.6014 71.0206C43.0367 71.0024 43.4538 70.948 43.889 70.8573C44.3243 70.7666 44.7596 70.676 45.1767 70.5853L45.8477 70.5127C46.1561 70.4221 46.4825 70.3495 46.7908 70.2407C47.2986 70.1319 47.8246 70.0231 48.3324 69.8961L49.6744 69.3702C50.1822 69.2251 50.6719 69.0256 51.1435 68.808C51.615 68.5903 52.0684 68.3364 52.5399 68.1551C52.8664 68.0281 53.1747 67.883 53.483 67.7561C53.7913 67.6291 54.0996 67.484 54.4079 67.3208C54.7163 67.1757 55.0064 66.9944 55.2966 66.813C55.5868 66.6498 55.877 66.4503 56.149 66.2508C56.7475 65.8518 57.3278 65.4709 57.9082 65.0357C58.1984 64.818 58.4885 64.6185 58.7606 64.3828L59.5767 63.6936C59.7037 63.5848 59.8306 63.476 59.9576 63.349L60.3203 62.9863L60.4654 62.8412C60.411 62.8412 60.3747 62.8231 60.3384 62.7868C60.3747 62.8231 60.411 62.8412 60.4654 62.8412C60.7555 62.5692 61.0639 62.2971 61.3359 62.007C61.6079 61.7168 61.8981 61.4266 62.152 61.1364C62.8049 60.3747 63.3671 59.5767 63.9838 58.7969C64.3646 58.3435 64.8724 57.8901 64.9087 57.346ZM65.3621 18.8432L65.0175 18.4805L65.3258 18.68L65.3621 18.8432ZM60.3747 62.4785C60.3566 62.5148 60.3384 62.551 60.3384 62.5873C60.3566 62.551 60.3747 62.5148 60.3747 62.4785C60.3928 62.4422 60.411 62.4059 60.4291 62.3697C60.411 62.4059 60.3928 62.4422 60.3747 62.4785ZM46.7727 2.66589C46.7001 2.66589 46.6276 2.70216 46.5913 2.75657C46.6276 2.70216 46.7001 2.66589 46.7727 2.66589ZM51.2885 12.2054C51.0891 12.1148 50.8714 12.0603 50.6357 12.0785C50.5631 12.0785 50.4906 12.1148 50.418 12.151C50.4906 12.1148 50.5631 12.0785 50.6357 12.0785C50.8533 12.0785 51.0709 12.1148 51.2885 12.2054L51.5243 12.3324L51.2885 12.2054ZM47.7339 12.6588L47.4256 12.5319L47.7339 12.6588ZM46.5006 12.0241L46.3556 11.9878C46.283 12.0603 46.1742 12.0966 46.0654 12.0785C46.1742 12.0966 46.2649 12.0603 46.3556 11.9878L46.5006 12.0241C46.5913 11.9153 46.7364 11.9153 46.8996 11.9878C46.7364 11.9153 46.5913 11.9153 46.5006 12.0241ZM46.809 13.9284C46.7364 13.8921 46.6457 13.8739 46.5732 13.8558C46.4281 13.8014 46.2649 13.8014 46.1198 13.8377C45.9928 13.8014 45.8659 13.7833 45.7389 13.747C45.8659 13.7833 45.9928 13.8014 46.1198 13.8377C46.2649 13.8014 46.4281 13.8195 46.5732 13.8558C46.6457 13.8739 46.7183 13.8921 46.809 13.9284L47.0447 14.019L46.809 13.9284ZM44.5238 13.3661L44.6689 13.4205C44.7233 13.4568 44.7596 13.475 44.7959 13.5294C44.7414 13.4931 44.7052 13.475 44.6689 13.4205L44.5238 13.3661ZM45.3218 12.949C45.2311 12.9309 45.1586 12.9309 45.0679 12.9853C45.1586 12.9309 45.2493 12.9309 45.3218 12.949C45.4669 12.9853 45.5757 13.0578 45.6845 13.1485C45.5938 13.0578 45.4669 12.9853 45.3218 12.949ZM44.7414 13.3117C44.8503 13.2392 44.9228 13.1122 45.0135 13.0397C44.9228 13.0941 44.8503 13.2211 44.7414 13.3117ZM44.0885 12.9309C43.9253 13.0397 43.7621 13.0578 43.5626 13.0034C43.7621 13.0578 43.9435 13.0216 44.0885 12.9309L44.3062 12.9671L44.0885 12.9309ZM44.0523 13.2936H44.0341H44.0523ZM38.7021 11.2624C38.7021 11.2805 38.684 11.2805 38.6659 11.2986C38.6477 11.2986 38.6296 11.2805 38.6115 11.2624L38.6296 11.2442C38.6296 11.2442 38.684 11.2624 38.7021 11.2624ZM29.5797 11.3349C29.5979 11.3712 29.616 11.4075 29.616 11.4619C29.616 11.4981 29.5979 11.5525 29.5797 11.5888C29.5435 11.6251 29.5253 11.6795 29.4891 11.7158C29.5253 11.6795 29.5616 11.6432 29.5797 11.5888C29.5979 11.5525 29.616 11.5163 29.616 11.4619C29.616 11.4075 29.5979 11.3712 29.5797 11.3349C29.5616 11.3168 29.5435 11.2805 29.5253 11.2805L29.7067 11.0447L29.5253 11.2805C29.5435 11.2805 29.5616 11.2986 29.5797 11.3349ZM11.5888 29.2896C11.5707 29.2896 11.5344 29.3077 11.5163 29.3077C11.5525 29.3077 11.5707 29.3077 11.5888 29.2896ZM11.081 32.1188C11.0991 32.1369 11.1173 32.1551 11.1354 32.1732C11.1354 32.1913 11.1173 32.2095 11.1173 32.2276C11.0991 32.2095 11.081 32.2095 11.0629 32.1913C11.081 32.1551 11.081 32.1369 11.081 32.1188ZM11.4981 41.4226C11.48 41.477 11.4618 41.5495 11.4256 41.6039C11.4618 41.5495 11.48 41.4951 11.4981 41.4226ZM11.3893 41.6946C11.353 41.7309 11.3349 41.7853 11.2805 41.8216C11.3349 41.7672 11.3712 41.7309 11.3893 41.6946ZM15.0528 49.1485C15.1253 49.2755 15.1435 49.4024 15.1072 49.5475L15.2704 49.7289C15.3248 49.8014 15.3611 49.874 15.3974 49.9284C15.3611 49.8558 15.3067 49.7833 15.2704 49.7289L15.1072 49.5475C15.1435 49.4206 15.1253 49.2755 15.0528 49.1485C14.9077 48.8765 14.5994 48.6226 14.6175 48.3143L14.418 47.9878C14.1097 48.0604 13.7833 47.8609 13.5656 47.4981C13.5112 47.4075 13.4568 47.2986 13.4205 47.1898C13.4568 47.2986 13.5112 47.3893 13.5656 47.4981C13.7833 47.879 14.1097 48.0604 14.418 47.9878L14.6175 48.3143C14.5994 48.6226 14.9077 48.8765 15.0528 49.1485ZM20.022 55.0246L20.149 55.1334L20.1853 55.2422L20.1309 55.1334L20.022 55.0246L19.6775 54.6619C19.6412 54.6256 19.6049 54.5893 19.5505 54.553C19.3692 54.5712 19.1697 54.5893 18.9702 54.5893C19.1697 54.5893 19.351 54.5712 19.5505 54.553C19.5868 54.5893 19.6231 54.6256 19.6775 54.6619L20.022 55.0246ZM64.1651 26.678C64.1833 26.6598 64.2014 26.6598 64.2377 26.6598C64.2739 26.6598 64.2921 26.678 64.3283 26.6961C64.2921 26.678 64.2739 26.678 64.2377 26.6598C64.2014 26.6598 64.1833 26.6598 64.1651 26.678ZM13.9102 63.349C13.9646 63.2946 14.1278 63.3672 14.2911 63.4941C14.1278 63.349 13.9828 63.2946 13.9102 63.349ZM14.8896 64.0926C14.8896 64.1107 14.8714 64.1107 14.8533 64.1289C14.8714 64.1107 14.8714 64.1107 14.8896 64.0926ZM47.6613 10.6639L47.7158 10.7001L47.6613 10.6639ZM47.6069 10.6095C47.6069 10.5913 47.6069 10.5913 47.6069 10.5732C47.6069 10.5551 47.6251 10.5188 47.6432 10.5007C47.6251 10.5188 47.6251 10.5551 47.6069 10.5732C47.6069 10.5732 47.6069 10.5913 47.6069 10.6095ZM43.4356 9.12231C43.4356 9.12231 43.4175 9.14045 43.4175 9.15859C43.4175 9.14045 43.4356 9.12231 43.4356 9.12231C43.4538 9.10418 43.4538 9.10418 43.4719 9.08604C43.4538 9.08604 43.4538 9.10418 43.4356 9.12231ZM46.6276 10.8271C46.6276 10.8452 46.6276 10.8634 46.6457 10.8996C46.6276 10.8815 46.6276 10.8452 46.6276 10.8271ZM43.2362 10.4644C43.2906 10.3918 43.345 10.3374 43.3994 10.2649C43.345 10.3374 43.3087 10.3918 43.2362 10.4644ZM44.0885 11.5888L44.3062 11.7158L44.9409 12.1692L44.3062 11.7158L44.0885 11.5888ZM45.8659 10.0654L45.4306 9.97471L45.8659 10.0654C45.9021 9.99284 45.9747 9.93843 46.0472 9.90216C46.1198 9.86589 46.2105 9.86589 46.3011 9.88403C46.2105 9.86589 46.1379 9.86589 46.0472 9.90216C45.9747 9.93843 45.9203 9.99284 45.8659 10.0654ZM43.5989 9.0135L43.6533 8.99536L43.5989 9.0135ZM33.4971 9.84775C33.5152 9.88403 33.5152 9.90216 33.5334 9.9203C33.5515 9.95657 33.5697 9.97471 33.6059 10.011C33.5878 9.97471 33.5515 9.95657 33.5334 9.9203C33.5334 9.90216 33.5152 9.88403 33.4971 9.84775ZM17.084 18.7888C17.0477 18.8614 16.9571 18.9339 16.9027 19.0064L16.7757 19.2241L16.9027 19.0064C16.9752 18.9339 17.0477 18.8614 17.084 18.7888ZM17.6644 54.009L17.9183 54.3535L17.6644 54.009C17.3561 53.7188 16.8482 53.5374 16.812 53.0659C16.7757 52.812 17.0659 52.9027 17.2654 52.9752C17.3923 53.0296 17.483 53.1022 17.5737 53.1928C17.6825 53.483 18.0815 53.9001 17.6644 54.009ZM64.2921 49.2211C64.2739 49.2392 64.2739 49.2573 64.2558 49.2936C64.2558 49.2755 64.2739 49.2392 64.2921 49.2211C64.2921 49.2573 64.3102 49.3117 64.3283 49.348L64.3646 49.4931L64.3283 49.348C64.3102 49.3117 64.2921 49.2573 64.2921 49.2211ZM34.15 6.92785L34.2588 7.43566L34.4402 7.56261C34.4583 7.56261 34.4946 7.56261 34.5127 7.56261L34.7666 7.34498C34.8936 7.14549 35.0749 7.14549 35.2563 7.19989C35.0568 7.16362 34.8755 7.14549 34.7666 7.34498L34.5127 7.56261C34.4946 7.56261 34.4583 7.56261 34.4402 7.56261L34.2588 7.43566L34.15 6.92785ZM41.7127 62.4059L41.6583 62.4604L41.7127 62.4059ZM41.5314 62.4241C41.5495 62.4241 41.5676 62.4422 41.5676 62.4422C41.5676 62.4422 41.5495 62.4422 41.5314 62.4241ZM30.9037 7.96161H30.813H30.9037ZM23.6493 10.9359C23.9576 10.7908 24.1027 10.7727 24.1571 10.809C24.1027 10.7727 23.9576 10.7908 23.6493 10.9359ZM19.9858 12.6226C20.0583 12.6588 20.0765 12.7132 19.8588 12.8221H19.8951H19.8588C20.0765 12.7132 20.0583 12.6588 19.9858 12.6226ZM13.8558 20.9289L13.9102 20.9107C13.9646 20.8926 14.0009 20.8926 14.0553 20.8745C14.0009 20.8926 13.9646 20.8926 13.9102 20.9107L13.8558 20.9289ZM19.6412 12.4231C19.6412 12.4049 19.6593 12.3868 19.6593 12.3687C19.6412 12.3868 19.6412 12.4049 19.6412 12.4231ZM16.6306 15.1979C16.5943 15.2523 16.5581 15.3067 16.5399 15.3611C16.5581 15.3067 16.5762 15.2523 16.6306 15.1979ZM16.3948 15.7238L16.4493 15.5606L16.3948 15.7238ZM16.8845 14.944C16.812 14.9077 16.7213 14.9077 16.6488 14.9258C16.5581 14.944 16.5037 14.9984 16.4493 15.0709C16.5037 14.9984 16.5762 14.9621 16.6488 14.9258C16.7213 14.9077 16.812 14.9077 16.8845 14.944ZM14.9258 18.2085C14.8533 17.8639 14.7626 17.5374 14.6901 17.1747C14.7626 17.5374 14.8351 17.882 14.9258 18.2085ZM8.57822 43.1636L8.50568 43.218L8.57822 43.1636ZM13.8921 19.4054L13.9102 19.4236L13.8921 19.4054ZM11.5707 21.5636C11.48 21.7631 11.4074 21.9626 11.3349 22.1621C11.4074 21.9445 11.48 21.745 11.5707 21.5636ZM11.2805 22.2891C11.2986 22.2709 11.2986 22.2528 11.3168 22.2165C11.2986 22.2528 11.2805 22.2709 11.2805 22.2891ZM11.2805 22.2891C11.2442 22.3435 11.2079 22.3979 11.1535 22.4523C11.1898 22.3979 11.2261 22.3616 11.2805 22.2891ZM11.6069 21.2734C11.6069 21.219 11.6251 21.1828 11.6251 21.1284C11.6251 21.1646 11.6069 21.219 11.6069 21.2734ZM14.4543 19.0427L14.4906 19.079L14.4543 19.0427ZM18.009 14.0009C17.9183 14.0916 17.8639 14.2004 17.8276 14.3092C17.7913 14.4362 17.7913 14.545 17.8095 14.6719C17.7913 14.545 17.7913 14.4362 17.8276 14.3092C17.8457 14.2004 17.9183 14.1097 18.009 14.0009ZM18.009 14.0009C18.0271 13.9828 18.0452 13.9646 18.0634 13.9465C18.0452 13.9828 18.0271 14.0009 18.009 14.0009ZM10.0291 26.0795L10.1561 26.1158L10.0291 26.0795C9.95656 26.2064 9.92029 26.3515 9.90215 26.4966C9.92029 26.3515 9.95656 26.2064 10.0291 26.0795ZM16.8301 15.9596L16.5399 15.9777L16.8301 15.9596ZM16.8301 16.286C16.7757 16.3042 16.7213 16.3223 16.685 16.3586C16.7394 16.3223 16.7938 16.286 16.8301 16.286ZM8.26991 40.28C8.19736 40.2981 8.12482 40.2981 8.05228 40.3163C8.12482 40.2981 8.19736 40.28 8.26991 40.28ZM7.97973 36.1087C7.99787 36.0906 7.99787 36.0724 7.99787 36.0543C8.016 35.9999 8.016 35.9455 8.016 35.8729C8.016 35.9273 7.99787 35.9818 7.99787 36.0543C7.99787 36.0543 7.99787 36.0724 7.97973 36.1087ZM7.88905 34.7848C7.94346 34.8573 7.99787 34.9117 8.08855 34.9299C7.99787 34.9117 7.92532 34.8755 7.88905 34.7848ZM8.45127 30.9218C8.54195 31.1394 8.61449 31.3752 8.63263 31.611C8.61449 31.3571 8.54195 31.1394 8.45127 30.9218ZM9.15857 29.6523C9.15857 29.5797 9.15857 29.4891 9.15857 29.4165C9.15857 29.4891 9.15857 29.5797 9.15857 29.6523ZM9.93842 27.0226C9.93842 26.9682 9.92029 26.9137 9.90215 26.8412C9.88401 26.7324 9.88401 26.6236 9.88401 26.5148C9.86588 26.6236 9.88401 26.7324 9.90215 26.8412C9.92029 26.9137 9.93842 26.9682 9.93842 27.0226C9.95656 27.1314 9.97469 27.2583 9.97469 27.3671C9.97469 27.2583 9.95656 27.1495 9.93842 27.0226ZM10.4825 26.4422L10.5188 26.4603L10.4825 26.4422ZM16.2498 17.3017L16.1772 17.1384L16.1409 17.1022L15.6694 16.9571L16.1409 17.1022L16.1772 17.1384L16.2498 17.3017ZM19.9676 12.6226L19.9132 12.6044L19.9676 12.6226ZM23.5948 9.97471L23.4135 10.011C23.3409 9.95657 23.3047 9.88403 23.2865 9.81148C23.3047 9.90216 23.3591 9.95657 23.4135 10.011L23.5948 9.97471C23.6311 10.0291 23.6674 10.0654 23.7218 10.1017C23.6674 10.0472 23.6311 10.011 23.5948 9.97471ZM20.421 13.1666L20.1671 13.4024L20.421 13.1666ZM19.1878 14.6538C19.1515 14.6357 19.0971 14.6357 19.0608 14.6357C19.0971 14.6357 19.1515 14.6357 19.1878 14.6538ZM30.9762 7.92534V7.88906V7.92534ZM25.88 9.64826L25.9888 9.59385L25.88 9.64826C25.8074 9.68453 25.7168 9.7208 25.6442 9.77521C25.7349 9.73894 25.8074 9.70267 25.88 9.64826ZM26.1702 10.1198L26.5147 10.283L26.1702 10.1198C25.9344 10.1379 25.9163 10.0835 25.9525 10.011C25.9163 10.0835 25.9525 10.1379 26.1702 10.1198ZM28.9268 8.72332V8.77773C28.7273 8.85027 28.5097 8.90468 28.3102 8.97723C28.5097 8.90468 28.7273 8.85027 28.9268 8.77773V8.72332H28.8362H28.9268ZM31.5203 7.83466C31.3933 7.83466 31.2845 7.85279 31.1757 7.9072L30.8311 8.1611L31.1757 7.9072C31.2845 7.87093 31.4115 7.83466 31.5203 7.83466C31.5566 7.83466 31.5928 7.83466 31.6291 7.85279C31.5928 7.83466 31.5566 7.83466 31.5203 7.83466ZM14.3092 21.8901C14.2367 21.9082 14.1641 21.8901 14.0916 21.8719C14.0734 21.8538 14.0372 21.8538 14.019 21.8357C14.0372 21.8538 14.0553 21.8719 14.0916 21.8719C14.1641 21.8901 14.2367 21.8901 14.3092 21.8901C14.3636 21.8719 14.418 21.8719 14.4543 21.8357C14.3999 21.8538 14.3455 21.8719 14.3092 21.8901ZM21.8357 12.9671C21.8357 12.949 21.8357 12.949 21.8175 12.9309C21.8175 12.8221 21.7631 12.6951 21.7631 12.5682C21.7631 12.677 21.8175 12.8039 21.8175 12.9309C21.8357 12.9309 21.8357 12.949 21.8357 12.9671ZM31.8105 7.92534C31.8649 7.96161 31.9193 7.99788 31.9555 8.01602C31.9011 7.99788 31.8467 7.96161 31.8105 7.92534ZM32.01 8.03415L31.9737 8.01602L32.01 8.03415ZM32.6266 7.72584C32.8079 7.83466 32.9893 7.87093 33.1888 7.81652C33.2613 7.79838 33.3339 7.78025 33.4064 7.76211C33.3339 7.78025 33.2613 7.79838 33.1888 7.81652C32.9712 7.85279 32.7898 7.83466 32.6266 7.72584L32.3001 7.85279L32.6266 7.72584ZM32.2639 9.41249C32.1913 9.41249 32.1369 9.41249 32.0644 9.39435C32.1188 9.43063 32.1913 9.43063 32.2639 9.41249ZM35.5465 8.70518C35.6372 8.65078 35.7278 8.6145 35.8185 8.5601C35.7278 8.59637 35.6372 8.65078 35.5465 8.70518ZM35.7097 8.88655H35.8911H35.7097C35.6734 8.88655 35.6372 8.90468 35.6009 8.90468C35.6372 8.90468 35.6734 8.90468 35.7097 8.88655ZM36.3082 8.94095L36.3263 8.97723L36.3082 8.94095C36.2356 8.92282 36.1631 8.92282 36.0906 8.90468C36.1631 8.92282 36.2356 8.92282 36.3082 8.94095ZM62.551 52.2679C62.5873 52.2316 62.6236 52.1954 62.678 52.1591C62.6417 52.1954 62.5873 52.2316 62.551 52.2679ZM18.9339 56.1672C19.1334 56.2397 19.3147 56.2941 19.5142 56.3304C19.3329 56.2941 19.1334 56.2397 18.9339 56.1672ZM19.9132 55.6956C19.4961 55.7319 19.0971 55.75 18.68 55.7319C18.68 55.6593 18.6618 55.5868 18.68 55.5687C18.8069 55.4417 18.8976 55.2241 19.0427 55.1153C19.1878 55.0064 19.4054 55.0246 19.8226 55.3148C19.8951 55.3692 19.9676 55.6775 19.9132 55.6956ZM15.5969 51.343C15.5787 51.3611 15.5425 51.3974 15.5243 51.4155C15.4699 51.4699 15.4336 51.5062 15.3792 51.5425C15.4336 51.5062 15.488 51.4518 15.5243 51.4155C15.5425 51.3792 15.5787 51.3611 15.5969 51.343C15.6513 51.3067 15.7057 51.2704 15.7601 51.2342C15.7057 51.2523 15.6513 51.2886 15.5969 51.343ZM15.2704 50.6357C15.3067 50.6175 15.343 50.5994 15.3611 50.5631C15.343 50.5994 15.3067 50.6175 15.2704 50.6357ZM13.2392 46.4644C13.2573 46.5913 13.2755 46.7364 13.3117 46.8634C13.2573 46.7183 13.2392 46.5913 13.2392 46.4644ZM12.3868 46.7727L12.5137 46.8634L12.3868 46.7727ZM12.151 44.542C12.2417 44.7777 12.278 45.0498 12.3686 45.3037C12.4049 45.4306 12.4593 45.5394 12.5319 45.6301C12.4593 45.5213 12.4049 45.4125 12.3686 45.3037C12.2598 45.0498 12.2417 44.7777 12.151 44.542ZM10.7545 41.1143L10.809 41.2049L10.7545 41.1143ZM10.5369 38.8291L10.5006 38.684L10.5369 38.8291C10.5732 38.8473 10.5913 38.8835 10.6095 38.9017C10.5913 38.8835 10.5732 38.8473 10.5369 38.8291ZM14.6357 21.745C14.5994 21.7813 14.545 21.7994 14.5087 21.8357C14.545 21.7994 14.5812 21.7631 14.6357 21.745C14.7807 21.6362 14.9077 21.5273 15.0165 21.4004C14.8896 21.5092 14.7626 21.6362 14.6357 21.745ZM19.0971 16.2316L19.1515 16.1772L19.0971 16.2316C19.0064 16.3223 18.9339 16.413 18.8432 16.5037C18.9158 16.413 19.0064 16.3223 19.0971 16.2316ZM31.3208 8.97723C31.4296 8.97723 31.5384 8.95909 31.6472 8.94095C31.5384 8.95909 31.4296 8.97723 31.3208 8.97723ZM37.3238 9.63012C37.5958 9.10418 38.1037 9.10418 38.6477 9.17672C38.1037 9.10418 37.5958 9.10418 37.3238 9.63012ZM37.6684 9.77521H37.5233H37.6684ZM38.5389 9.04977C37.9767 9.03163 37.3964 9.03163 36.8341 9.06791H36.6528H36.8341C37.3964 9.03163 37.9586 9.03163 38.5389 9.04977ZM39.5545 1.90418C39.3732 1.97672 39.1737 1.99486 38.9923 1.97672C38.9016 1.97672 38.7928 1.97672 38.7021 1.99486C38.7928 1.99486 38.8835 1.97672 38.9923 1.97672C39.1918 1.99486 39.3732 1.95859 39.5545 1.90418ZM44.6689 70.1682H44.7052H44.6689ZM63.476 35.8729C63.476 35.8729 63.5122 35.9092 63.5122 35.9274C63.5122 35.9636 63.4941 35.9999 63.476 36.0362L63.4215 35.9636C63.4215 35.9273 63.4397 35.8911 63.476 35.8729ZM60.3203 47.5525C60.3022 47.5344 60.3022 47.5344 60.3022 47.5163C60.3203 47.5163 60.3203 47.5344 60.3203 47.5525ZM60.3203 47.5163C60.3203 47.4981 60.3203 47.48 60.3203 47.4619C60.3203 47.48 60.3022 47.4981 60.3203 47.5163ZM36.5984 62.2609L36.5258 62.279C36.3989 62.2609 36.2901 62.279 36.1812 62.3334C35.6734 62.4241 35.1475 62.5148 34.6397 62.551L34.5309 62.5148C34.277 62.4241 33.9686 62.3697 33.7329 62.2427C33.4971 62.1339 33.3158 61.9888 33.4427 61.7349C33.6422 61.3541 33.8598 61.4447 34.1319 61.5898C34.3858 61.7349 34.6578 61.9344 34.8936 61.8437C35.2744 62.6417 35.8367 61.8981 36.3263 61.9525C36.5802 61.9888 36.816 61.9344 36.943 62.0976C37.0699 62.3697 36.6891 62.2427 36.5984 62.2609ZM17.3923 52.6306C17.483 52.6306 17.5556 52.6669 17.6281 52.7032C17.5556 52.6669 17.4649 52.6306 17.3923 52.6306ZM16.3767 51.3792C16.2498 51.2886 16.1228 51.216 15.9777 51.1979C16.1228 51.216 16.2498 51.2886 16.3767 51.3792L16.4311 51.4881L16.3767 51.3792ZM11.7702 44.0523L11.9697 44.3243L11.7702 44.0523L11.5163 43.4538C11.5163 43.1273 11.4074 42.8372 11.1898 42.5833C11.4074 42.8372 11.5163 43.1273 11.5163 43.4538L11.7702 44.0523ZM10.9903 41.9666C11.0629 41.9485 11.1354 41.9122 11.2079 41.876C11.1354 41.9122 11.0629 41.9485 10.9903 41.9666ZM10.8634 41.6946C10.9178 41.6583 10.9722 41.6221 11.0447 41.5858C10.9722 41.6221 10.8996 41.6583 10.8634 41.6946ZM11.0629 35.3833L10.7908 34.5672L11.0629 35.3833ZM10.809 33.6785C10.7908 33.751 10.7727 33.8417 10.7908 33.9143C10.7908 33.8417 10.7908 33.751 10.809 33.6785ZM10.9722 32.7535C10.9722 32.8805 10.9359 33.0075 10.8815 33.1344C10.9359 33.0075 10.9722 32.8986 10.9722 32.7535ZM11.0991 31.3933C11.0447 31.4659 11.0084 31.5566 10.9722 31.6291C11.0084 31.5384 11.0447 31.4659 11.0991 31.3933ZM13.2936 24.3747C13.4024 24.3928 13.4931 24.3566 13.5838 24.3022C13.4931 24.3566 13.3843 24.3747 13.2936 24.3747ZM13.7289 23.5223L13.8921 23.5404L13.7289 23.5223ZM20.8744 14.817C20.7475 14.8714 20.6205 14.9258 20.5117 15.0165C20.6205 14.944 20.7475 14.8714 20.8744 14.817ZM19.7319 16.6306C20.0039 16.1772 20.3304 16.1228 20.6387 16.2498C20.6749 16.2679 20.6387 16.4311 20.6205 16.4493C20.2941 16.5944 19.9676 16.9027 19.7319 16.6306ZM21.9626 15.1072C21.9626 15.1253 21.9626 15.1616 21.9626 15.1797C21.9626 15.1616 21.9626 15.1253 21.9626 15.1072ZM21.9626 15.2523C21.9626 15.2704 21.9807 15.2886 21.9807 15.3067C21.9807 15.2886 21.9626 15.2704 21.9626 15.2523ZM25.1001 12.5137L25.6079 12.5319L25.1001 12.5137C25.0639 12.5682 25.0457 12.6407 25.0095 12.6951C25.0276 12.6226 25.0639 12.5682 25.1001 12.5137ZM27.3127 12.151C27.4397 12.0966 27.5485 12.0241 27.6754 11.9697C27.6936 11.8427 27.7117 11.7158 27.7299 11.6069C27.7299 11.5525 27.7299 11.4981 27.7299 11.4437C27.7299 11.4981 27.7299 11.5525 27.7299 11.6069C27.7299 11.7339 27.6936 11.8427 27.6754 11.9697C27.5666 12.0422 27.4397 12.0966 27.3127 12.151ZM29.4709 10.7183C29.5435 10.682 29.616 10.6457 29.6885 10.6095C29.616 10.6457 29.5435 10.682 29.4709 10.7183L29.743 11.0085L29.4709 10.7183L29.2351 10.7727L29.4709 10.7183ZM33.5152 9.82962C33.4971 9.7208 33.5697 9.63012 33.9324 9.55758C33.5697 9.63012 33.479 9.73894 33.5152 9.82962ZM34.1863 9.93843C34.15 9.90216 34.1137 9.86589 34.0956 9.82962C34.0956 9.86589 34.15 9.90216 34.1863 9.93843ZM36.1631 10.1017C36.6528 10.1017 37.088 10.0291 37.3238 9.64826C37.1062 10.011 36.6528 10.0835 36.1631 10.1017C35.9273 10.1198 35.6553 10.1198 35.4195 10.1379C35.6734 10.1198 35.9092 10.1017 36.1631 10.1017ZM48.3505 11.2624V11.2986V11.2624ZM48.3142 10.9541C48.4593 10.9541 48.5863 11.0085 48.6951 11.0991C48.5863 11.0085 48.4593 10.9541 48.3142 10.9541ZM48.949 11.3168L48.8402 11.2261L48.949 11.3168ZM49.2029 11.48C49.1485 11.4619 49.1122 11.4437 49.076 11.4075C49.1122 11.4437 49.1485 11.4619 49.2029 11.48ZM49.4024 11.1173C49.5656 11.3168 49.8739 11.5525 49.7833 11.7158C49.8739 11.5707 49.5475 11.3349 49.4024 11.1173ZM48.1692 10.2286C48.2598 10.3193 48.3505 10.3918 48.4775 10.4644C48.3505 10.41 48.2417 10.3374 48.1692 10.2286ZM46.3374 9.86589C46.4644 9.88403 46.5913 9.9203 46.7001 9.97471C46.5732 9.93843 46.4644 9.90216 46.3374 9.86589ZM45.1223 8.70518L45.1042 8.75959L45.1223 8.70518ZM39.7722 8.03415C39.8266 8.14297 39.9173 8.23365 40.0079 8.30619C39.8991 8.23365 39.8266 8.14297 39.7722 8.03415ZM39.0105 7.58075L38.013 7.4538L39.0105 7.58075C39.1556 7.58075 39.3006 7.61702 39.4276 7.7077C39.3006 7.63516 39.1556 7.58075 39.0105 7.58075ZM16.7032 5.85783C16.6125 5.91224 16.5399 5.94851 16.4493 5.98478C16.5399 5.96665 16.6125 5.91224 16.7032 5.85783ZM16.413 6.02105C16.3948 6.03919 16.3767 6.03919 16.3586 6.05733C16.3767 6.03919 16.3948 6.02105 16.413 6.02105ZM16.3042 6.05733C16.286 6.05733 16.2679 6.07546 16.2498 6.07546C16.2316 6.0936 16.286 6.07546 16.3042 6.05733ZM49.5294 68.3364C49.8921 68.0462 50.2911 67.8467 50.7263 67.7379C50.8896 67.6835 51.0709 67.6291 51.2341 67.5747C51.0709 67.6291 50.8896 67.6835 50.7263 67.7379C50.2729 67.8467 49.8739 68.0462 49.5294 68.3364C49.4568 68.3908 49.3843 68.4271 49.2936 68.4815C49.3661 68.4271 49.4387 68.3908 49.5294 68.3364ZM67.2664 29.8881C67.5384 30.015 67.7198 30.2145 67.8286 30.4865C67.883 30.6679 67.9011 30.8311 67.9011 31.0125C67.9011 31.212 67.883 31.4296 67.883 31.6291C67.6835 31.3571 67.4659 31.1213 67.1938 30.7949C67.212 30.5772 67.2301 30.3415 67.2482 30.1601C67.2482 29.9969 67.2482 29.8881 67.2664 29.8881ZM66.3233 24.5742C66.3052 24.5923 66.3052 24.6105 66.287 24.6286C66.3052 24.6105 66.3052 24.5923 66.3233 24.5742ZM63.5304 21.3097C63.476 21.2734 63.4397 21.2553 63.4034 21.2372C63.3853 21.2009 63.3853 21.1646 63.3853 21.1284C63.3853 21.1284 63.4397 21.1465 63.4397 21.1646C63.476 21.1828 63.5122 21.2372 63.5304 21.3097ZM61.5717 16.4674C61.6442 16.5399 61.6623 16.8483 61.7168 17.0659L61.0639 16.9027C61.1001 16.6306 61.0095 16.3042 60.7193 15.8508C61.0276 16.0321 61.2996 16.2316 61.5717 16.4674ZM55.351 11.4619C54.7525 11.208 55.8951 12.5682 54.8432 11.6795C54.1903 11.1535 54.5168 10.9722 55.0246 11.0085L55.0971 11.0629C55.2603 11.208 55.6593 11.5888 55.351 11.4619ZM51.7419 10.3374C52.0321 10.4825 52.413 10.6457 52.5581 10.809C52.8845 11.1354 53.2291 11.4256 53.61 11.6976C53.8095 11.8246 54.0089 11.9515 54.2084 12.0785C54.4261 12.1873 54.6256 12.3324 54.8251 12.4593C55.0246 12.5863 55.2422 12.7132 55.4236 12.8583C55.6231 13.0034 55.8044 13.1485 55.9676 13.2936C56.1309 13.4387 56.2941 13.6019 56.4573 13.7833C56.6024 13.9646 56.7112 14.146 56.82 14.3455C56.8563 14.3636 56.9107 14.3999 56.947 14.3999C57.1465 14.4724 57.3278 14.5631 57.5092 14.6719C57.6906 14.7807 57.8538 14.9077 58.017 15.0347C58.1802 15.1616 58.3435 15.3067 58.5067 15.4518C58.6699 15.615 58.815 15.7782 58.9782 15.9415L59.4316 16.4493L59.8669 16.9752C60.012 17.1384 60.1752 17.3198 60.3203 17.483C60.4654 17.6462 60.6105 17.8095 60.7737 17.9727C61.481 18.68 62.0795 19.5687 62.678 20.4936C63.2765 21.4185 63.8387 22.3797 64.4916 23.2684C64.2195 21.9263 64.6729 22.7787 64.8906 23.0508C65.2896 23.5949 64.9268 22.3797 65.4346 22.9964C65.5616 23.1415 65.6523 23.2865 65.743 23.4316C65.8155 23.5767 65.888 23.7218 65.9425 23.885C66.0513 24.1933 66.142 24.4835 66.2326 24.81C66.2326 24.7556 66.2508 24.7012 66.287 24.6467C66.2689 24.7012 66.2508 24.7556 66.2326 24.81L66.3777 25.2634C66.0694 25.3359 65.7792 25.4266 65.4709 25.5535C65.3621 25.608 65.217 25.6805 65.4165 26.1339C66.4865 28.5823 67.1938 31.1394 67.5747 33.7873C67.611 34.0049 67.6291 34.2407 67.6472 34.4583C67.6291 34.4583 67.611 34.4402 67.5928 34.4402C67.3389 34.3858 67.085 34.3495 67.1576 33.8417C67.4296 32.1369 67.1032 30.7404 66.1964 29.7792C66.0513 29.616 65.9062 29.616 65.9062 29.8881C65.9062 30.541 65.8699 31.1938 65.8336 31.8286C65.8336 31.9918 65.7067 32.2457 65.6704 32.2276C65.5072 32.1369 65.5435 31.9012 65.5797 31.7198L65.616 31.5566C65.6704 31.3389 65.6704 31.1213 65.616 30.8855C65.5797 30.6679 65.4891 30.4503 65.3621 30.2689C65.2714 30.0694 65.1989 29.8699 65.1626 29.6523C65.1263 29.4347 65.1082 29.217 65.0719 28.9994C65.0175 28.5641 64.9631 28.1107 64.6911 27.7661C64.7455 27.6755 64.7817 27.5666 64.7817 27.4578C64.7817 27.349 64.7455 27.2583 64.6729 27.1677L64.6367 27.0226C64.546 26.9319 64.4372 26.8412 64.3283 26.7505C64.4372 26.8231 64.546 26.9137 64.6367 27.0226C64.546 26.5329 64.2739 26.1158 64.0744 25.6805C64.02 25.5717 63.9656 25.4629 63.9112 25.3541C63.8568 25.2452 63.8024 25.1364 63.7661 25.0276C63.6754 24.7918 63.621 24.5561 63.5848 24.3022C63.5304 24.1752 63.476 24.0483 63.4034 23.9213C63.222 23.5223 63.0588 23.1233 62.8593 22.7243L62.7868 22.4523C62.6054 21.9445 62.3152 21.5092 61.9163 21.1646C61.5354 20.4573 61.1364 19.7682 60.7011 19.079C60.4654 18.7525 60.2296 18.4261 59.9938 18.0996C59.7399 17.7913 59.4498 17.5012 59.1596 17.2291C59.0508 17.1203 58.7606 16.9208 58.8875 17.1384C59.1052 17.5374 59.3409 17.9727 59.5767 18.3717C59.7943 18.7888 60.0301 19.1878 60.3203 19.5687C60.5561 19.8951 60.8281 20.1853 61.0276 20.4755C61.1183 20.6024 61.1908 20.7656 61.209 20.9289C61.2271 21.0921 61.209 21.2553 61.1183 21.4004C61.0276 21.5636 60.7918 21.6724 60.9369 21.9263C60.955 21.9807 60.9913 22.0352 61.0457 22.0896C61.1001 22.144 61.1545 22.1621 61.209 22.1984C61.2634 22.2165 61.3359 22.2347 61.3903 22.2347C61.4629 22.2347 61.5173 22.2165 61.5717 22.1984C61.7349 22.1984 61.8437 22.2709 61.9344 22.3979C62.0613 22.6881 62.1702 22.9964 62.2246 23.3228C62.2246 23.3772 62.2064 23.4135 62.152 23.4498C62.1339 23.4679 62.0976 23.5042 62.0613 23.5223C61.6986 22.9782 61.6986 23.5767 61.7168 23.6493C61.7349 23.7762 61.8074 23.9032 61.8981 23.9938C61.9888 24.1027 62.0976 24.1571 62.2246 24.1933C62.3515 24.2478 62.4422 24.3203 62.5329 24.411C62.6054 24.5017 62.6417 24.5923 62.6598 24.7012C62.6961 24.9188 62.6961 25.1364 62.6961 25.3541C62.6961 25.481 62.678 25.5898 62.678 25.7168C62.7868 25.753 62.8775 25.7893 62.9681 25.8619C63.2946 26.1339 63.5666 26.4422 63.8024 26.7868C64.0019 27.1495 63.6392 27.0407 63.6029 27.2221C63.5122 27.4941 63.4397 27.7661 63.4034 28.0563C63.3853 28.4372 63.4941 28.7818 63.7299 29.0901C63.9475 29.3802 64.3283 29.9969 63.7661 30.1964C63.7117 30.4503 63.6754 30.686 63.621 30.9218L63.4397 31.6472C63.9475 32.0281 63.9475 32.4634 63.8387 32.8986C63.748 33.3339 63.5304 33.7692 63.5848 34.1863C63.5848 34.2951 63.5666 34.4039 63.5485 34.4946C63.5848 34.5127 63.6392 34.549 63.6573 34.5309C63.7117 34.4402 63.748 34.3314 63.7843 34.2407C63.8387 34.0049 63.6754 33.5515 63.9294 33.5515C64.02 33.5515 64.1833 34.0231 64.2014 34.3132C64.2195 34.4946 63.9838 34.676 63.9294 34.8755C63.8205 35.2563 63.5848 35.4739 63.4215 35.7641C63.2946 35.9636 63.222 36.1631 63.1676 36.3808C63.1314 36.5984 63.1132 36.8341 63.1676 37.0518C63.222 37.6865 63.3853 38.5933 63.1676 39.0649C62.9319 39.7178 62.7686 40.3707 62.6598 41.0417C62.551 41.4407 62.4059 41.8397 62.2427 42.2205C62.0432 42.6014 61.9344 43.0185 61.8981 43.4538C61.88 43.6352 62.152 44.2881 61.5535 44.3062C61.4629 44.3062 61.354 44.3243 61.2634 44.3243C61.2452 44.415 61.2271 44.4875 61.209 44.5782C61.1908 44.6508 61.1727 44.7233 61.1908 44.814C61.2815 45.3581 60.8825 45.8115 60.7011 46.3012C60.6105 46.5369 60.5016 46.7727 60.3747 46.9722C60.2477 47.1898 60.0664 47.3893 59.9394 47.6069C59.7943 47.8246 59.6855 48.0422 59.5948 48.278C59.5042 48.5319 59.4679 48.7858 59.486 49.0397C59.4679 49.2211 59.4135 49.4024 59.3047 49.5656C59.2503 49.7107 59.1596 49.8195 59.0508 49.9284C58.7062 49.9646 58.4885 50.3636 58.2346 50.7082C57.9807 51.0528 57.7268 51.3792 57.3641 51.2886C57.2734 51.2704 57.3641 51.4699 57.4004 51.5425C57.4729 51.7238 57.6362 51.8508 57.4729 52.1772C57.1828 52.7394 56.8382 52.4855 56.5117 52.7576C56.4754 52.7938 56.3485 52.7576 56.3485 52.7213C56.3848 52.5037 56.3666 52.3405 56.0946 52.5581C55.8588 52.7213 56.0039 52.9208 55.9495 53.0115C55.75 53.3198 56.1309 53.3742 56.2034 53.5374C56.0402 53.61 55.877 53.6644 55.7137 53.6825C55.5868 53.7188 55.4598 53.7551 55.3329 53.8095C55.2241 53.8457 55.1334 53.9002 55.0427 53.9546C54.8976 54.0634 54.7707 54.2085 54.6981 54.3717C54.6437 54.4805 54.6074 54.5893 54.5712 54.7163C54.5168 54.7525 54.4442 54.7707 54.4079 54.807C54.1903 54.9158 54.0271 55.0246 54.0452 55.2604C54.0452 55.3329 54.0452 55.4236 54.0452 55.4961C53.9183 55.5687 53.8276 55.6593 53.7369 55.7863C53.6825 55.8407 53.6281 55.9132 53.5737 55.9858C53.3742 56.0946 53.1928 56.2216 53.0296 56.3848C52.7938 56.5117 52.5581 56.6206 52.3223 56.7475L52.1953 56.947L52.1772 57.0014C51.9596 57.1465 51.7238 57.2916 51.488 57.4185C51.4155 57.4548 51.3611 57.5092 51.2885 57.5455C51.2341 57.5818 51.1072 57.6543 51.0165 57.7087C50.817 57.8357 50.6175 57.9626 50.4362 58.1077L49.8377 58.4886C49.6382 58.6155 49.4568 58.7425 49.2573 58.8694C49.221 58.8876 49.1848 58.9057 49.1485 58.9238L49.1304 58.7969C48.7495 59.0326 48.5319 59.3591 48.0603 59.4679C47.2079 59.6493 46.3374 59.6674 45.6664 60.3384C45.5757 60.411 45.4669 60.4473 45.3399 60.4654C44.5238 60.2115 44.0704 60.5017 43.5626 61.0276C43.3812 61.209 43.1455 61.3178 42.8916 61.354C42.6377 61.3903 42.4019 61.3722 42.1661 61.2996C41.7853 61.1727 42.4019 61.0276 42.4926 60.8825C42.5288 60.8281 42.547 60.7012 42.5289 60.7012C42.4019 60.6649 42.2568 60.6649 42.1299 60.7012C41.622 60.9188 41.0961 61.1908 40.552 60.8462C40.5158 60.8281 40.4251 60.8462 40.3707 60.8462C39.9717 60.9369 39.5908 61.0639 39.1918 61.1727C38.7928 61.2634 38.3757 61.3359 37.9767 61.3903C37.5414 61.4266 37.1062 61.4447 36.689 61.4266C36.2719 61.3903 35.8911 61.2452 35.5465 60.9913C35.4377 60.9007 35.4558 60.7193 35.2019 60.7193C35.0205 60.7374 34.8573 60.7737 34.6941 60.8644C34.1681 61.1183 33.7329 61.5898 32.8442 61.0457L32.6629 60.8281C32.4815 60.5742 32.3001 60.5742 32.1188 60.7556L31.9918 60.7193C31.6654 60.4473 31.2845 60.683 30.9581 60.5198L30.813 60.4654C30.5591 60.3566 30.3233 60.2478 30.0875 60.1208C29.888 60.012 29.6704 59.9394 29.4528 59.9213C29.217 59.9032 28.9812 59.885 28.7636 59.8488C28.5278 59.8306 28.3102 59.7581 28.1107 59.6493C27.8749 59.5223 27.7299 59.341 27.6392 59.1052H27.3671C26.8593 59.1052 26.551 58.6518 26.0976 58.5067C25.8618 58.416 25.6261 58.3616 25.3903 58.2709C25.1545 58.1802 24.9369 58.0352 24.7737 57.8357C24.5379 57.5455 24.2659 57.2916 23.9576 57.0921C23.6493 56.8926 23.3047 56.7475 22.9419 56.6568L22.5067 56.4755C21.9445 56.0946 21.4185 55.6593 20.8744 55.2241C20.0402 54.5349 19.2603 53.8276 18.5168 53.0478L18.1178 52.6669C17.9908 52.5218 17.882 52.3767 17.755 52.2498C16.7032 51.0709 15.7782 49.8195 14.944 48.4775C13.9828 47.0085 13.4024 45.3581 12.6226 43.8165C12.55 43.3813 12.0785 43.0729 12.2236 42.5833C12.4231 42.4382 12.2961 42.2931 12.151 42.1299L11.9697 42.0936C11.9152 42.0029 11.8427 41.9122 11.7883 41.8216C11.8427 41.9122 11.9152 42.0029 11.9697 42.0936L12.151 42.1299V41.9666L12.1329 41.8397C12.0059 41.8034 12.0422 41.3137 11.8246 41.5495L11.6251 41.0961C11.6069 40.9692 11.5888 40.8422 11.5707 40.7153C11.5525 40.5883 11.5707 40.4614 11.5525 40.3344C11.5525 40.0986 11.5888 39.881 11.6613 39.6634C11.6069 39.6271 11.5707 39.5727 11.5344 39.5001C11.5163 39.4457 11.4981 39.3732 11.4981 39.3007C11.4981 39.3732 11.4981 39.4276 11.5344 39.5001C11.5525 39.5727 11.6069 39.6271 11.6613 39.6634C11.6069 39.4095 11.6069 39.1556 11.5707 38.9017L11.5525 38.7384C11.5163 38.5389 11.4618 38.3576 11.4074 38.1581L11.2986 37.5777C11.2261 37.0699 11.4074 36.5621 11.2079 36.0543C11.2079 35.9092 11.2079 35.7641 11.2079 35.619L11.1354 35.0387L11.0991 34.6941L11.081 34.3314C10.9903 34.2588 10.8996 34.1682 10.8634 34.0593C10.9178 34.1682 10.9903 34.2588 11.081 34.3314L11.1717 33.4064L11.2986 32.5178C11.3349 32.2276 11.3893 31.9374 11.4437 31.6472C11.4981 31.3571 11.5344 31.0669 11.6251 30.7767L11.48 30.7586L11.4256 30.3596L11.48 30.7586L11.6251 30.7767L11.7158 30.1782C11.752 29.9787 11.7702 29.7792 11.8246 29.5979L11.8608 29.2714C11.8608 29.1263 11.879 28.9268 11.7158 29.0175C11.6795 29.0175 11.6432 28.9994 11.6251 28.9631C11.6432 28.8362 11.6795 28.7092 11.7158 28.5823C11.7339 28.546 11.752 28.5097 11.752 28.4553C12.0966 28.2377 12.1329 27.5122 12.3324 27.4578C13.0397 27.2583 12.8946 26.8775 12.7676 26.3878L12.7314 26.1883L12.677 25.9344V25.88C12.7676 25.6261 12.8583 25.3903 12.9671 25.1364C12.9853 25.0639 13.0215 25.0095 13.0578 24.9369C13.2755 24.8644 13.4749 24.81 13.6926 24.7737C13.7651 24.7556 13.8377 24.7193 13.9102 24.6649C13.9828 24.6286 14.0372 24.5742 14.0734 24.5017C14.1278 24.4473 14.1641 24.3747 14.1823 24.3022C14.2185 24.2296 14.2367 24.1571 14.2367 24.0664C14.3455 23.6311 13.9828 24.1208 13.9283 23.9938V23.9394C13.9828 23.5404 14.1097 23.1777 14.3273 22.8513C14.5631 22.5611 14.8533 22.3435 15.1979 22.2347C15.3974 22.3797 15.7057 22.416 15.4336 22.942C15.3974 23.0145 15.488 23.1415 15.5243 23.2503C15.5787 23.1415 15.615 23.0326 15.6694 22.9238C15.7782 22.7243 15.8508 22.5067 15.8689 22.2709C15.8689 22.1077 15.7601 22.017 15.4699 22.0352C15.4336 22.0352 15.4336 21.7631 15.488 21.7268C15.7238 21.4911 15.887 21.219 15.9777 20.8926C16.0865 20.5661 16.3042 20.3304 16.6125 20.1671L16.6669 19.9132C16.8482 19.7682 17.0296 19.6593 17.211 19.5324L17.4105 19.351C17.6462 19.2785 17.6644 19.079 17.7188 18.9158C17.9001 18.7707 18.0815 18.6437 17.8639 18.5349L17.9545 18.3898C18.0634 18.2629 18.1722 18.1178 18.2991 17.9908C18.4079 17.8639 18.5349 17.7369 18.6618 17.6281C18.9158 17.3742 19.2241 17.211 19.5868 17.1566C19.9132 17.1203 20.149 17.4286 20.4392 17.1384C20.6205 16.9389 20.7656 16.7032 20.947 16.5218C20.9833 16.4674 21.0377 16.4311 21.0921 16.3949C21.1465 16.3586 21.219 16.3404 21.2734 16.3223C21.3278 16.3042 21.4004 16.3042 21.4729 16.3223C21.5455 16.3404 21.5999 16.3586 21.6543 16.3767C21.6906 16.3949 21.9989 16.1772 22.0533 16.3042C22.0896 16.413 21.9807 16.5944 21.9445 16.7213C21.9082 16.812 21.7268 17.0659 21.9445 16.9571C22.3435 16.7938 22.9601 16.4674 22.8875 16.1591C22.815 15.8508 22.9419 15.3248 22.2891 15.3792L22.0714 15.3067C22.2709 15.1253 22.4886 14.9621 22.7243 14.817C22.9419 14.6719 23.1777 14.5268 23.4316 14.418C23.9213 14.1823 24.411 13.9828 24.9188 13.8195C24.9732 13.9646 24.81 14.0372 24.7011 14.1823C24.5561 14.3455 24.4291 14.5268 24.3566 14.7445C24.3384 14.7626 24.4654 14.7989 24.5198 14.817C24.6467 14.6719 24.7737 14.5268 24.9006 14.3818C25.0276 14.2367 25.1545 14.0916 25.2815 13.9465C25.2996 13.9102 25.1183 13.8377 25.0457 13.7651V13.747L25.3903 13.5112H25.2271C25.0095 13.5294 24.81 13.5475 24.5923 13.6019C24.81 13.5656 25.0095 13.5294 25.2271 13.5112H25.3903C25.481 13.475 25.5898 13.4387 25.6986 13.4205L25.8074 13.2755L25.6986 13.4205L26.551 13.076C26.8231 12.949 27.1314 12.8583 27.4034 12.7495C27.6754 12.6407 27.9838 12.55 28.2739 12.4593C28.5641 12.3687 28.8543 12.2598 29.1445 12.2054C29.4346 12.0603 29.8155 12.2417 30.0513 11.9515C30.5228 11.879 30.9943 11.7702 31.4659 11.6976L32.1732 11.6069L32.5359 11.5525L32.8986 11.5344C32.953 11.4075 33.0437 11.3349 33.1707 11.2624C33.2976 11.208 33.4064 11.1717 33.5515 11.1898C33.8054 11.1898 34.0775 11.2986 34.3132 11.2986C34.4039 11.0991 34.5309 10.9178 34.6941 10.7727C34.7666 10.7001 34.8573 10.6276 34.948 10.5551C34.8573 10.6276 34.7666 10.7001 34.6941 10.7727C34.5309 10.9359 34.4039 11.0991 34.3132 11.2986C34.5853 11.208 34.8573 11.081 35.0931 10.9178C35.3833 10.7546 35.6916 10.682 36.018 10.7183C36.018 10.6639 36.0543 10.5913 36.018 10.5551C35.8548 10.4462 35.8548 10.3374 36.0362 10.283C36.1994 10.2467 36.3626 10.2649 36.5077 10.3374C37.1606 11.1354 38.3032 11.2624 39.5001 11.4981C39.5908 11.5344 39.6815 11.5707 39.754 11.6432C39.6634 11.6795 39.5727 11.7702 39.4639 11.7702C39.3006 11.7702 39.1374 11.752 38.9561 11.752L38.7021 11.7339H38.4482C38.1037 11.7158 37.7772 11.7158 37.4326 11.7158C36.7616 11.7702 36.1268 11.8609 35.5828 12.2054C35.4558 12.278 35.3107 12.3505 35.2744 12.4412C35.2382 12.5319 35.3107 12.7132 35.3833 12.7132C35.5828 12.7314 35.7641 12.677 35.9273 12.5682C36.1268 12.4231 36.3445 12.3143 36.5802 12.2236C36.7072 12.1692 36.8341 12.1692 36.9611 12.1873C37.088 12.2236 37.1969 12.278 37.3057 12.3687C37.6684 12.7314 37.9586 12.8039 38.5027 12.7132C38.7747 12.677 39.0467 12.6951 39.3188 12.7677C39.7903 12.8765 40.0805 12.8765 40.2437 12.7495C40.4069 12.6407 40.4251 12.4049 40.3888 12.1148C40.6971 12.3505 40.9329 12.0966 41.2231 12.151L41.35 12.3868C41.3681 12.4956 41.4044 12.6044 41.4588 12.6951C41.5132 12.7858 41.5676 12.8765 41.6583 12.949C41.7309 13.0216 41.8215 13.076 41.9304 13.1304C42.021 13.1848 42.1299 13.2029 42.2387 13.2211C42.6558 13.3117 43.1455 13.2936 43.5989 13.348L43.6896 13.3661C43.8346 13.6019 44.1611 13.6563 44.4331 13.7651L44.6326 13.747C44.9591 13.8195 45.2855 13.9284 45.5938 14.0553C45.9021 14.1823 46.2286 14.2185 46.555 14.1279C46.5188 14.2729 46.5913 14.3273 46.809 14.3636C47.2805 14.3999 47.752 14.5087 48.2236 14.5813C48.4775 14.6175 48.9671 14.8896 48.9309 14.5813C48.8946 14.2729 48.3868 14.2004 48.0603 14.1097C47.9878 13.8558 47.7339 13.7289 47.4618 13.6382C47.1898 13.5475 46.9178 13.4568 46.7908 13.2211L46.5369 12.949L46.3918 12.8765L45.9566 12.6044L45.1404 12.7314L45.9384 12.5863L45.9928 12.4956C46.3011 12.151 46.7183 12.2054 47.1717 12.3505C46.7183 12.1873 46.3011 12.1329 45.9928 12.4956L45.9384 12.5863L46.3737 12.8583C46.7908 12.6226 47.1717 13.1485 47.5707 13.1848C47.6613 13.2392 47.752 13.2936 47.8427 13.3661L48.278 13.5838C48.2961 13.6019 48.3324 13.6019 48.3505 13.62C48.6044 13.7289 48.8583 13.8377 49.0941 13.9465C50.1278 14.4906 51.1072 15.0891 52.0503 15.7601C52.2679 15.9052 52.5581 16.1772 52.7032 16.0503C52.8482 15.9233 52.5581 15.6331 52.3404 15.4336C51.7782 14.9258 51.216 14.4362 50.6175 13.9828C50.4362 13.8377 50.2729 13.7107 50.0916 13.5656C49.62 13.2211 49.1304 12.8946 48.6226 12.5682L48.2236 12.3143C48.1873 12.3324 48.1329 12.3687 48.0966 12.3687C48.151 12.3505 48.1873 12.3324 48.2236 12.3143C48.0422 11.9697 47.48 12.1148 47.2805 11.8064L47.2261 11.7702L47.4256 11.7158L48.3686 12.0785C48.677 12.2054 48.9853 12.3324 49.2936 12.4775C49.9102 12.7495 50.5087 13.0397 51.1072 13.3661L51.1979 13.2573L51.1072 13.3661C51.3792 13.4931 51.6331 13.6019 51.488 13.2573L51.5243 13.2029C51.8689 13.0941 52.6669 13.8014 52.7394 13.2936C52.7576 13.0578 52.4311 12.5682 51.8326 12.3687L51.7057 12.278C52.1409 11.9515 51.615 11.7702 51.1253 11.4981C50.3092 11.0447 49.7651 10.3012 48.8039 9.97471L48.4775 9.86589L48.2236 10.0291L48.4775 9.86589L47.9334 9.59385C47.752 9.50317 47.5707 9.43063 47.3893 9.33995L47.3712 9.61199L47.5707 9.73894L47.3712 9.61199L47.3893 9.33995L47.1535 9.21299C46.8815 8.97723 46.555 8.83214 46.1923 8.79587C45.8296 8.75959 45.485 8.65078 45.1586 8.46942C45.0498 8.43314 44.9228 8.39687 44.814 8.37874L44.1792 8.21551L43.9979 8.1611C43.0004 7.79838 41.9666 7.38126 40.9147 7.2543C40.3525 7.18176 39.7903 7.10921 39.2462 7.01853C38.8472 6.96413 38.4482 6.90972 38.0493 6.85531C38.5389 6.85531 39.0105 6.87345 39.482 6.87345C40.0261 6.90972 40.552 6.94599 41.0961 7.0004L41.2956 7.10921C41.3319 7.12735 41.3863 7.14549 41.4226 7.14549C41.622 7.23617 41.8215 7.29058 42.021 7.30871C42.3656 7.29058 42.7102 7.29058 43.0548 7.30871C43.2362 7.32685 43.3994 7.34498 43.5807 7.38125C43.7802 7.41753 43.9616 7.49007 44.1248 7.59889C44.7958 7.96161 45.1767 8.01602 45.3218 7.6533L46.1561 7.88906C46.4281 7.97974 46.7183 8.03415 46.9903 8.12483L47.8246 8.41501L48.2417 8.5601L48.6588 8.72332C49.1848 8.99536 49.7107 9.24926 50.2185 9.53944C50.4906 9.64826 50.7445 9.79335 50.9802 9.95657C51.1616 10.1561 51.4336 10.283 51.7419 10.3374ZM50.0372 14.1641C50.146 14.1823 50.2548 14.1641 50.3636 14.1279C50.2548 14.1641 50.146 14.1823 50.0372 14.1641ZM50.4362 14.0916C50.4724 14.0734 50.4906 14.0553 50.5268 14.0553C50.4906 14.0553 50.4543 14.0734 50.4362 14.0916ZM61.2634 13.0941C61.0276 13.1485 60.8825 13.3299 60.3203 12.8039C60.1933 12.6951 60.1027 12.5682 60.0482 12.4231C60.0664 12.1873 60.3384 12.2417 60.683 12.4049C60.8644 12.6407 61.0639 12.8583 61.2634 13.0941ZM47.3349 69.6966L47.4256 69.6604C47.4437 69.5697 47.48 69.4971 47.5525 69.4427C47.48 69.4971 47.4437 69.5697 47.4256 69.6604L47.3349 69.6966ZM48.5137 69.08L48.9127 68.953L49.0034 68.7717C49.0941 68.7535 49.1666 68.7354 49.2392 68.7173C49.4749 68.681 49.6019 68.681 49.6563 68.7173C49.6019 68.681 49.4749 68.681 49.2392 68.7173C49.1666 68.7354 49.0941 68.7535 49.0034 68.7717L48.9127 68.953L48.5137 69.08ZM53.3923 67.1576L53.7369 66.8855C53.8276 66.7404 53.8095 66.5954 53.8457 66.4684C53.8639 66.4321 53.8639 66.3959 53.882 66.3596C53.8639 66.3959 53.8457 66.4321 53.8457 66.4684C53.8095 66.6135 53.8276 66.7586 53.7369 66.8855L53.3923 67.1576ZM60.3203 62.6417C60.3022 62.6961 60.3022 62.7505 60.3022 62.8049C60.3022 62.7324 60.3022 62.678 60.3203 62.6417ZM64.7999 56.9107C64.2558 57.2553 64.2921 56.9833 64.3646 56.675C64.2921 56.9833 64.2377 57.2553 64.7999 56.9107C64.8724 56.9651 64.7273 57.2009 64.7092 57.3279C64.7092 57.2009 64.8724 56.9651 64.7999 56.9107Z" fill="#FFDE59"/>
<path d="M55.9859 16.522C56.1854 16.6489 56.3849 16.7759 56.5663 16.921L56.5481 16.9935L57.0559 17.3381C56.9834 17.2111 56.929 17.066 56.8927 16.921C56.802 16.5764 56.4937 16.3587 56.1854 16.1774C55.8771 15.996 55.5688 15.7965 55.46 15.4519L55.3693 15.4157L55.2061 15.3794C55.3149 15.7965 55.3511 16.1955 55.9859 16.522Z" fill="#FFDE59"/>
<path d="M53.6102 14.4544C53.5921 14.1642 54.2994 14.672 54.3719 14.3637C54.3538 14.3093 54.3175 14.273 54.2631 14.2549C53.6828 14.001 53.1387 13.8921 52.7578 14.1823L52.8485 14.4362C53.0661 14.3818 53.6465 15.1254 53.6102 14.4544Z" fill="#FFDE59"/>
<path d="M30.1604 12.0422C29.9609 12.405 29.834 12.5682 29.834 12.7314C29.834 12.8221 30.0153 12.8946 30.1242 12.9672C30.3418 12.8221 30.5594 12.6589 30.7589 12.4775C30.7952 12.4412 30.5413 12.2961 30.1604 12.0422Z" fill="#FFDE59"/>
<path d="M68.1549 46.3195C68.1368 46.4101 68.1005 46.4827 68.0642 46.5552C68.0098 46.7366 67.9736 46.9361 67.9191 47.1356C67.8829 47.2988 67.8285 47.4439 67.7378 47.5708C67.4476 47.8973 67.2481 48.2781 67.1574 48.7134C67.0668 49.0761 67.0668 49.4388 66.9942 49.8016C66.9761 49.9648 66.9761 50.1099 66.9761 50.2731C67.0849 50.0555 67.2118 49.8378 67.2844 49.6202C67.3751 49.4026 67.4476 49.1849 67.5202 48.9492C67.5927 48.7134 67.6471 48.4776 67.7197 48.26C67.8103 47.861 67.9736 47.4983 68.1731 47.1537C68.5358 46.6459 68.7171 46.1018 68.7353 45.4852C68.7534 45.2676 68.5902 44.9411 68.5358 44.9955C68.3725 45.1769 68.2637 45.3764 68.2275 45.6121C68.2093 45.8661 68.1731 46.0837 68.1549 46.3195Z" fill="#FFDE59"/>
<path d="M57.8721 15.724C57.9083 15.3795 57.4368 15.3069 57.2917 14.9986C57.0559 14.8354 56.7658 14.654 56.4756 14.4727C56.6025 14.9805 57.0922 15.3432 57.4731 15.7784C57.9627 16.3044 57.6544 15.5608 57.8721 15.724Z" fill="#FFDE59"/>
<path d="M66.5773 49.9284C66.668 49.8558 66.7405 49.7833 66.7949 49.7108C66.8493 49.5838 66.8856 49.4569 66.9037 49.3118C66.7949 49.4387 66.6861 49.5838 66.5954 49.7108C66.5592 49.747 66.5773 49.8558 66.5773 49.9284Z" fill="#FFDE59"/>
<path d="M61.6626 22.942C61.6626 22.942 61.6626 22.8694 61.6445 22.8331C61.6082 22.815 61.5719 22.815 61.5356 22.7969C61.5356 22.7969 61.5356 22.8513 61.5356 22.9057C61.5901 22.9238 61.6263 22.942 61.6626 22.942Z" fill="#FFDE59"/>
<path d="M54.3716 34.4585L54.4804 34.5673L54.3897 34.4041L54.3716 34.4585Z" fill="#FFDE59"/>
<path d="M30.0876 72.5259C29.9788 72.5077 29.8519 72.4896 29.7431 72.4533C29.2715 72.3808 28.6005 72.3627 28.3284 72.2357C27.8206 71.9637 27.2766 71.7823 26.7143 71.7279C26.2247 71.6735 25.7713 71.6735 25.2816 71.6191C25.0821 71.6009 24.8826 71.6191 24.6831 71.6372C24.9914 71.7279 25.2816 71.8549 25.5899 71.9274C25.8982 71.9999 26.1884 72.0725 26.4967 72.1269L27.4398 72.2901C27.7481 72.3445 28.0383 72.4171 28.2922 72.4533C28.5279 72.4896 28.7637 72.5622 28.9813 72.6528C29.9607 73.0881 30.5773 73.0518 31.3028 73.0337C31.5929 73.0337 31.9556 72.8342 31.8831 72.7798C31.339 72.4715 30.7224 72.5259 30.0876 72.5259Z" fill="#FFDE59"/>
<path d="M69.7148 29.199C69.9143 29.6524 70.0232 30.0151 70.1501 30.3415C70.2771 30.668 70.3677 30.94 70.4584 31.2121C70.5128 30.9037 70.531 30.5954 70.5672 30.2871C70.4222 30.1058 70.3859 29.7793 70.3133 29.471C70.2408 29.1627 70.132 28.9088 69.9506 28.9088C69.8237 28.8906 69.7693 29.1083 69.7148 29.199Z" fill="#FFDE59"/>
<path d="M71.0205 36.798C71.0749 36.5259 71.1112 36.2539 71.1475 36.0181C71.1112 35.8186 71.1112 35.5829 71.1112 35.4015C71.0931 35.2202 71.0568 35.0932 70.9298 35.1113C70.8029 35.1295 70.6215 35.2564 70.6759 35.6554C70.7485 36.0544 70.8573 36.4353 71.0205 36.798Z" fill="#FFDE59"/>
<path d="M8.17423 38.0176C7.23115 38.9425 6.75962 39.7949 6.79589 40.6292C6.81403 41.4635 7.32183 41.8987 8.33745 41.8987C9.00848 41.9169 9.84274 41.4816 10.8584 40.6111C11.8377 39.7405 12.7445 38.7431 13.5788 37.6549C14.413 36.5486 15.1566 35.4423 15.8458 34.2997C17.2785 34.064 18.3485 33.9007 19.074 33.8463C19.1102 34.608 19.2735 35.4786 19.4911 36.4216C19.7087 37.3647 20.017 38.3622 20.4523 39.3959C20.8876 40.4478 21.3772 41.3728 21.9395 42.207C22.4835 43.0413 23.1727 43.6942 23.9526 44.1839C24.7506 44.6735 25.6029 44.873 26.4735 44.7279C26.6186 44.7279 26.6911 44.6917 26.6911 44.6373C26.6911 44.601 26.6186 44.601 26.4916 44.601C25.5667 44.6373 24.6961 44.1113 23.8619 43.0413C23.0095 41.9894 22.3022 40.6292 21.7762 38.9607C21.2322 37.3103 20.8694 35.6055 20.7244 33.7919C21.74 33.8101 22.4835 33.9914 22.9369 34.336C23.3903 34.6806 23.5717 35.134 23.4629 35.6055V35.7869C23.4629 35.8232 23.4992 35.8594 23.5536 35.8594C23.5898 35.8594 23.6624 35.7687 23.6987 35.6237C23.8256 35.0796 23.6624 34.5899 23.1546 34.1728C22.6468 33.7738 21.8307 33.5561 20.6881 33.5199C20.543 31.1622 20.6518 28.3148 21.0689 24.9234C21.0871 24.6514 20.9601 24.47 20.6699 24.3249C20.3798 24.198 20.1077 24.1436 19.7994 24.1436C19.4911 24.1617 19.346 24.2161 19.3642 24.2524C19.2191 25.4312 18.8019 26.9365 18.0946 28.7682C17.3873 30.6181 16.5712 32.3773 15.61 34.0458C13.9778 34.4267 12.7989 34.7713 12.0553 35.0977C11.9647 35.134 11.9465 35.2065 11.9647 35.2972C11.9647 35.4242 12.0372 35.4786 12.1642 35.4242C12.6538 35.1158 13.7238 34.735 15.3924 34.3541C14.5037 35.9682 13.3249 37.5823 11.8196 39.1965C10.3324 40.8287 9.13544 41.6448 8.26491 41.6267C7.73896 41.6267 7.39438 41.4453 7.21302 41.1007C7.03166 40.7561 7.06793 40.339 7.28556 39.8131C7.50319 39.3053 7.86592 38.8156 8.35559 38.3622C8.55508 38.1808 8.62763 38.0539 8.55508 37.9632C8.44627 37.8907 8.30118 37.9088 8.17423 38.0176ZM16.0815 33.9551C17.4961 31.4524 18.6024 28.8226 19.4367 26.0297C19.2553 26.7914 19.0921 27.807 19.0014 29.0584C18.9108 30.3098 18.9108 31.797 19.0196 33.5561C18.276 33.6287 17.3148 33.7556 16.0815 33.9551Z" fill="black"/>
<path d="M25.6344 35.5148C25.7795 35.6055 26.0696 35.7143 26.5049 35.8594C26.9402 36.0408 27.2303 36.1496 27.3754 36.2403C27.8107 36.5123 28.0646 36.7662 28.0827 37.0383C28.0827 37.3103 27.9921 37.673 27.7744 38.1083C27.4661 39.0332 27.2122 39.9582 26.9764 40.9194C26.5412 42.6786 26.4686 43.5128 26.7588 43.3859C27.2122 43.1682 28.4636 40.9919 30.5311 36.8569H30.8031C28.6631 41.3002 27.3392 43.6035 26.8132 43.803C26.6681 43.8393 26.5049 43.8393 26.3598 43.7667C25.9246 43.5491 25.6525 43.0775 25.5437 42.3884C25.4167 41.6992 25.4167 41.0282 25.5256 40.3209C25.6344 39.6136 25.8157 38.9788 26.0515 38.4166C26.0878 38.2715 26.1785 38.0901 26.2691 37.8725C26.3598 37.6549 26.4142 37.4917 26.4686 37.3828C26.5049 37.2922 26.5593 37.1652 26.5956 36.9838C26.6319 36.8388 26.6681 36.7118 26.6681 36.6574L26.6319 36.3672C26.5956 36.1859 26.2147 35.9682 25.5618 35.7506L25.0178 36.9294H24.782C24.9089 36.6393 25.1084 36.2221 25.3442 35.6599C24.8364 35.4604 24.4737 35.134 24.2379 34.6624C24.0203 34.2272 23.9296 33.7556 24.0021 33.3022C24.0747 32.8488 24.2742 32.468 24.5644 32.1597C24.9815 31.7425 25.3623 31.5974 25.6706 31.67C25.979 31.7607 26.1603 32.0871 26.251 32.6131V33.2116C26.1422 34.0639 25.9427 34.8257 25.6344 35.5148ZM25.4167 35.4241C25.7251 34.6624 25.9246 33.9007 25.9608 33.2116C25.979 32.9032 25.979 32.6493 25.9427 32.468C25.8701 32.1959 25.7251 32.1234 25.5074 32.3048C25.1628 32.5405 24.8908 32.9939 24.7094 33.5924C24.4555 34.5536 24.6732 35.1702 25.4167 35.4241Z" fill="black"/>
<path d="M37.545 36.8568C37.019 37.9087 36.2755 39.0513 35.3505 40.2845C35.2598 39.8493 35.151 39.1238 35.0603 38.1263C34.9515 37.147 34.9334 36.4941 34.9697 36.1858C34.9697 36.0951 34.8971 36.0407 34.7702 35.9681C34.6432 35.9319 34.48 35.8956 34.3349 35.8956C34.1535 35.8956 34.0629 35.9319 34.0266 36.0226C34.0266 36.0588 34.0085 36.1495 34.0085 36.3127C33.9903 36.4578 33.9722 36.5485 33.9722 36.5848C33.8452 36.2039 33.6276 35.8956 33.3193 35.6417C32.9928 35.4059 32.612 35.3153 32.213 35.4059L32.0679 35.4422C31.1974 35.678 30.5989 36.3853 30.3268 37.5641C30.0367 38.6886 30.1092 39.6679 30.5263 40.5203C30.9435 41.4452 31.5782 41.7354 32.4306 41.3908C32.7752 41.2639 33.0835 40.8649 33.3918 40.212C33.682 39.5591 33.8996 38.8518 34.0266 38.0538C34.0447 38.5797 34.2079 39.686 34.48 41.3183C34.0266 41.8986 33.011 42.8054 31.4694 44.0931C29.9097 45.3626 28.876 46.3057 28.35 46.9223C27.7334 47.6296 27.2981 48.2825 27.0261 48.9173C26.754 49.5702 26.6452 50.1324 26.6996 50.5858C26.7359 51.0392 26.9173 51.42 27.2256 51.7284C27.5339 52.0367 27.9148 52.2543 28.3863 52.345C28.876 52.4538 29.42 52.4357 30.0729 52.3087C30.7258 52.1818 31.3969 51.9097 32.086 51.5107C33.1923 50.8941 34.0447 50.0598 34.6613 48.9898C35.2598 47.9198 35.6044 46.7772 35.7132 45.5621C35.8221 44.3833 35.7132 42.7329 35.3868 40.6472C35.7314 40.1938 36.1848 39.5409 36.6744 38.743C37.1641 37.945 37.5268 37.3102 37.7445 36.8387H37.545V36.8568ZM34.5344 41.681C34.8246 43.5309 34.6432 45.2538 33.9903 46.886C33.3374 48.5364 32.5032 49.8059 31.4875 50.7127C30.3087 51.7646 29.275 52.1999 28.35 52.0367C27.6427 51.9278 27.2256 51.5107 27.1168 50.8034C26.9173 49.7515 27.4432 48.5001 28.6765 47.0674C29.2024 46.4508 30.1999 45.544 31.6326 44.3651C33.0835 43.1863 34.0447 42.2976 34.5344 41.681ZM33.8996 37.3284C33.8996 37.8906 33.7545 38.6523 33.41 39.6135C33.0654 40.5747 32.6845 41.0644 32.2855 41.1006C32.086 41.1188 31.9047 40.9918 31.7777 40.6835C31.6508 40.3752 31.5601 39.9943 31.5057 39.5409C31.4694 39.0875 31.4694 38.5979 31.5057 38.1082C31.542 37.6185 31.6326 37.1651 31.814 36.7299C31.9954 36.3127 32.213 36.0226 32.4669 35.8593C32.7571 35.678 33.0291 35.7324 33.3011 35.9863C33.5913 36.2583 33.7545 36.6936 33.8996 37.3284Z" fill="black"/>
<path d="M38.3571 36.059C37.9218 36.331 37.5953 36.6937 37.3596 37.1653C37.1419 37.6549 37.0331 38.1265 37.0513 38.6524C37.0513 39.396 37.2326 40.0126 37.5953 40.5023C37.9399 40.992 38.3933 41.264 38.8649 41.3547C39.3545 41.4454 39.8805 41.2821 40.4064 40.8469C40.9324 40.4297 41.3314 39.7769 41.6397 38.87C42.7822 38.7612 43.6346 38.0721 44.2513 36.857H44.0155C43.3626 37.9995 42.5828 38.598 41.7122 38.6161C42.1112 36.9839 41.9117 35.8051 41.0775 35.0978C40.5152 34.6444 39.9168 34.5355 39.282 34.7532C38.6654 34.9708 38.3571 35.4061 38.3571 36.059ZM41.4039 38.8519C41.3132 39.124 41.2044 39.3416 41.1137 39.5411C40.5515 40.6837 39.8986 41.1371 39.2276 40.9194C38.7198 40.7925 38.3752 40.3753 38.1938 39.668C37.9218 38.7975 38.1032 37.9995 38.6835 37.3466C38.7198 37.4917 38.8286 37.6731 38.9918 37.8544C39.1188 38.0539 39.4271 38.2716 39.8623 38.5073C40.2976 38.7431 40.8054 38.8519 41.4039 38.8519ZM41.4765 38.6161C40.9505 38.6343 40.4246 38.5255 39.8986 38.2716C39.3727 37.9995 39.0462 37.6368 38.9011 37.1471C39.2095 36.9658 39.4815 36.9114 39.6629 36.9114C39.8442 36.9114 39.9893 36.9476 40.0981 37.002C40.1163 37.002 40.1344 36.9114 40.1707 36.7844C40.2069 36.6575 40.1888 36.4761 40.1707 36.2766C40.1344 36.0771 40.0618 35.932 39.953 35.7869C39.8623 35.7507 39.6629 35.7144 39.3545 35.7507C39.0281 35.7869 38.7923 35.8413 38.6291 35.932C38.6654 35.4967 38.8649 35.2066 39.2639 35.0796C39.7898 34.8983 40.2976 35.0615 40.8054 35.4967C41.549 36.1678 41.7666 37.2197 41.4765 38.6161Z" fill="black"/>
<path d="M50.3195 36.857C50.0474 37.4011 49.6666 38.0177 49.1406 38.6888C48.6147 39.3779 48.1975 39.8495 47.8711 40.1215C47.599 39.5956 47.055 38.8339 46.2751 37.7638C45.459 36.7119 44.9875 36.0228 44.8242 35.7145C45.3139 34.6988 45.6585 33.647 45.8399 32.5588C45.9305 32.051 45.9124 31.652 45.7673 31.3981C45.5678 30.981 45.2232 30.8903 44.7154 31.1623C44.1169 31.4706 43.6998 32.0147 43.464 32.8127C43.0288 34.1729 43.3371 35.7689 44.4252 37.6187C44.661 38.054 45.06 38.6706 45.6404 39.4867C46.1844 40.321 46.5109 40.847 46.656 41.0827C46.6378 41.1009 46.5109 41.1915 46.2751 41.3729C46.0575 41.5543 45.8399 41.7538 45.6222 41.917C45.4046 42.1165 45.1325 42.3341 44.8605 42.6061C44.5703 42.8782 44.3164 43.1502 44.0625 43.4404C43.7905 43.7487 43.6091 44.0208 43.464 44.2747C42.9744 45.1271 42.9562 45.8162 43.3915 46.3422C43.7905 46.8681 44.4252 47.0495 45.2958 46.8681C46.3658 46.6505 47.2363 45.9613 47.8892 44.8187C48.2157 44.2203 48.397 43.5492 48.4333 42.7694C48.4514 42.0258 48.3064 41.2097 47.9799 40.3754C48.3245 40.0671 48.7416 39.5593 49.2676 38.9064C49.7935 38.2535 50.2288 37.5643 50.5915 36.857H50.3195ZM46.7467 41.3366C47.2363 42.3704 47.2726 43.5129 46.8373 44.7462C46.5109 45.6167 46.0031 46.2152 45.2958 46.4873C44.6429 46.7593 44.1169 46.6686 43.6998 46.2696C43.192 45.8344 43.192 45.1633 43.6998 44.3291C44.0081 43.8031 44.4615 43.259 45.1325 42.6606C45.7673 42.0621 46.2933 41.6268 46.7467 41.3366ZM44.6429 35.4968C44.1895 34.7532 44.0807 33.8464 44.3164 32.7946C44.3527 32.5225 44.4434 32.3049 44.5522 32.0873C44.788 31.5613 45.0419 31.3255 45.2958 31.3255C45.6041 31.3255 45.6948 31.7427 45.5678 32.5769C45.4046 33.52 45.0963 34.4812 44.6429 35.4968Z" fill="black"/>
<path d="M51.2161 34.2226C51.2161 34.15 51.1617 33.8055 50.9077 33.6785C50.6538 33.5516 50.273 33.6785 50.2549 33.7692C49.5294 37.5959 50.0372 38.8836 50.4181 39.4639C50.7445 39.9536 51.0166 40.0624 51.1617 40.0987C51.4518 40.1712 51.7057 40.0624 51.7964 40.0261C53.0478 39.5364 54.1722 36.7798 54.1722 36.7798C54.1722 36.7798 54.1722 36.943 54.1541 37.1606C54.1541 37.1606 54.136 37.9042 54.1722 38.6659C54.3173 41.3682 55.6412 40.8604 56.004 40.3888C56.3485 39.9354 57.2009 38.938 57.9082 36.8523C57.9808 36.6347 57.9264 36.1631 57.8538 36.1631C57.7813 36.145 57.8176 36.3264 57.6906 36.7798C57.4367 37.614 57.1828 38.0856 56.8201 38.7929C56.8201 38.7929 56.2397 39.9173 55.6594 40.2982C55.5687 40.3707 55.079 40.7516 54.9884 39.6453C54.7889 37.3964 55.3873 35.8367 55.5506 34.4584C55.5687 34.2407 55.5868 33.8236 55.5506 33.7329C55.4599 33.4972 55.1878 33.3702 54.8977 33.4246C54.68 33.4609 54.4805 33.6422 54.4443 33.8236C54.4261 33.878 54.4261 33.9324 54.4261 33.9506C54.4443 34.3133 54.3717 34.9299 54.2992 35.4014C54.2448 35.8004 54.0997 36.1813 53.9183 36.6528C53.8458 36.8342 53.7914 36.9793 52.9753 38.3939C52.5219 39.1737 51.8327 39.9173 51.4337 39.7359C50.2367 39.1556 50.7445 37.215 50.9803 35.0568C50.9803 35.0024 51.0166 34.9118 51.0891 34.5853C51.1435 34.4765 51.2161 34.2951 51.2161 34.2226Z" fill="black"/>
<path d="M59.1776 32.1189C59.2138 31.9194 59.1232 31.7017 58.9781 31.5748C58.8874 31.5022 58.7605 31.4297 58.6154 31.4297C58.162 31.4297 58.0894 31.7924 58.0713 31.9194C57.763 33.9325 57.7811 36.7073 57.9081 37.4871C57.9625 37.8498 58.3071 37.8498 58.4159 37.5415C58.7423 36.671 58.8149 35.1294 60.0481 33.4065C60.1751 33.2252 60.4652 32.8806 60.6466 32.8987C61.1181 32.935 60.6103 33.8418 60.9005 35.8186C61.2269 38.1037 61.6985 38.7566 62.7867 38.8473C64.2557 38.9561 65.3438 36.0181 65.4164 35.202C65.4164 35.1476 65.2531 35.0932 65.235 35.1838C64.8723 36.8886 63.5665 38.8292 62.7504 38.539C62.1882 38.3214 62.2788 37.0337 62.0068 35.1113C61.9343 34.5491 61.7166 33.0075 61.0275 32.6085C60.1388 32.1007 58.9237 34.9662 58.8693 34.9481C58.8149 34.9662 58.8511 34.3496 59.1776 32.1189Z" fill="black"/>
</g>
<defs>
<clipPath id="clip0_112_818">
<rect width="72" height="72" fill="white"/>
</clipPath>
</defs>
</svg>
