<svg width="88" height="88" viewBox="0 0 88 88" fill="none" xmlns="http://www.w3.org/2000/svg">
<path d="M66 8H22C20.5413 8 19.1424 8.57946 18.1109 9.61091C17.0795 10.6424 16.5 12.0413 16.5 13.5V74C16.5 75.4587 17.0795 76.8576 18.1109 77.8891C19.1424 78.9205 20.5413 79.5 22 79.5H66C67.4587 79.5 68.8576 78.9205 69.8891 77.8891C70.9205 76.8576 71.5 75.4587 71.5 74V13.5C71.5 12.0413 70.9205 10.6424 69.8891 9.61091C68.8576 8.57946 67.4587 8 66 8ZM66 13.5V30H22V13.5H66ZM22 52V35.5H66V52H22ZM22 74V57.5H66V74H22Z" fill="#858585"/>
<path d="M30.25 24.75C31.7688 24.75 33 23.5188 33 22C33 20.4812 31.7688 19.25 30.25 19.25C28.7312 19.25 27.5 20.4812 27.5 22C27.5 23.5188 28.7312 24.75 30.25 24.75Z" fill="#858585"/>
<path d="M30.25 46.75C31.7688 46.75 33 45.5188 33 44C33 42.4812 31.7688 41.25 30.25 41.25C28.7312 41.25 27.5 42.4812 27.5 44C27.5 45.5188 28.7312 46.75 30.25 46.75Z" fill="#858585"/>
<path d="M30.25 68.75C31.7688 68.75 33 67.5188 33 66C33 64.4812 31.7688 63.25 30.25 63.25C28.7312 63.25 27.5 64.4812 27.5 66C27.5 67.5188 28.7312 68.75 30.25 68.75Z" fill="#858585"/>
</svg>
