<svg width="88" height="88" viewBox="0 0 88 88" fill="none" xmlns="http://www.w3.org/2000/svg">
<path d="M11 10.75C11 10.0207 11.2897 9.32118 11.8055 8.80546C12.3212 8.28973 13.0207 8 13.75 8H74.25C74.9793 8 75.6788 8.28973 76.1945 8.80546C76.7103 9.32118 77 10.0207 77 10.75C77 11.4793 76.7103 12.1788 76.1945 12.6945C75.6788 13.2103 74.9793 13.5 74.25 13.5H66C66 15.029 64.889 16.25 63.4975 16.25H61.875V24.7475C64.2125 25.38 65.945 27.5525 65.945 30.0825C65.945 31.9965 64.955 33.6905 63.4618 34.675L65.9917 38.25H78.3365C78.7057 38.247 79.0611 38.3897 79.3257 38.6471C79.5903 38.9045 79.7428 39.2559 79.75 39.625C79.75 39.8065 79.7141 39.9862 79.6443 40.1537C79.5745 40.3213 79.4722 40.4734 79.3434 40.6012C79.2145 40.729 79.0617 40.8301 78.8936 40.8985C78.7255 40.967 78.5455 41.0015 78.364 41H77V49.25H78.3365C78.7057 49.247 79.0611 49.3897 79.3257 49.6471C79.5903 49.9045 79.7428 50.2559 79.75 50.625C79.7428 50.9941 79.5903 51.3455 79.3257 51.6029C79.0611 51.8603 78.7057 52.003 78.3365 52H75.537C75.5751 52.2515 75.5417 52.5087 75.4405 52.7421C75.3394 52.9755 75.1746 53.1758 74.965 53.32C74.7175 53.485 74.4425 53.5675 74.1675 53.5675C73.7275 53.5675 73.315 53.375 73.04 52.99L72.3388 52H48.5513L47.85 52.99C47.575 53.375 47.1625 53.5675 46.7225 53.5675C46.4475 53.5675 46.1725 53.485 45.925 53.32C45.7154 53.1758 45.5506 52.9755 45.4495 52.7421C45.3483 52.5087 45.3149 52.2515 45.353 52H42.6635C42.2943 52.003 41.9389 51.8603 41.6743 51.6029C41.4097 51.3455 41.2572 50.9941 41.25 50.625C41.25 49.8715 41.888 49.25 42.6635 49.25H44V41H42.6635C42.2943 41.003 41.9389 40.8603 41.6743 40.6029C41.4097 40.3455 41.2572 39.9941 41.25 39.625C41.25 38.8715 41.888 38.25 42.6635 38.25H54.901L57.431 34.675C56.6689 34.1751 56.0427 33.4938 55.6088 32.6923C55.1749 31.8907 54.9468 30.994 54.945 30.0825C54.945 29.3125 55.5775 28.7075 56.32 28.7075C57.09 28.7075 57.695 29.3125 57.695 30.0825C57.695 31.0725 58.2257 31.947 59.0177 32.431L59.2515 32.101C59.3116 32.0002 59.3846 31.9078 59.4688 31.826C59.596 31.6966 59.7481 31.5941 59.9158 31.5246C60.0835 31.4552 60.2635 31.4202 60.445 31.4218C60.8025 31.419 61.16 31.5592 61.4212 31.826C61.5063 31.9076 61.5803 32.0001 61.6413 32.101L61.8723 32.431C62.6643 31.947 63.195 31.0725 63.195 30.0825C63.195 28.57 62.0125 27.36 60.5 27.3325C60.0325 27.3325 59.5925 27.085 59.345 26.7C59.1823 26.4869 59.0953 26.2256 59.0975 25.9575C59.0975 25.8475 59.0975 25.765 59.125 25.655V16.25H57.5025C56.111 16.25 55 15.029 55 13.5H38.5V71.25H40.5625C42.46 71.25 44 72.79 44 74.6875V76.75H77.0275C80.0525 76.75 82.5 79.2113 82.5 82.25H5.5C5.5 79.2113 7.9475 76.75 10.9725 76.75H13.75V74.6875C13.75 72.79 15.29 71.25 17.1875 71.25H19.25V13.5H13.75C13.0207 13.5 12.3212 13.2103 11.8055 12.6945C11.2897 12.1788 11 11.4793 11 10.75ZM22 19V25.0252L34.0505 19H22ZM23.6995 71.25H35.75V65.2248L23.6995 71.25ZM34.0505 63H22V69.0252L34.0505 63ZM23.6995 27.25H35.75V21.2248L23.6995 27.25ZM34.0505 30H22V36.0252L34.0505 30ZM23.6995 38.25H35.75V32.2248L23.6995 38.25ZM34.0505 41H22V47.0252L34.0505 41ZM23.6995 49.25H35.75V43.2248L23.6995 49.25ZM34.0505 52H22V58.0252L34.0505 52ZM23.6995 60.25H35.75V54.2248L23.6995 60.25ZM60.1755 35.577L58.2835 38.25H62.6065L60.7145 35.577C60.5349 35.5859 60.3551 35.5859 60.1755 35.577ZM52.9512 41H46.75V49.25H47.113L52.9512 41ZM50.4983 49.25H70.3918L64.5535 41H56.3365L50.4983 49.25ZM67.936 41L73.777 49.25H74.25V41H67.936Z" fill="#858585"/>
</svg>
