<svg width="88" height="88" viewBox="0 0 88 88" fill="none" xmlns="http://www.w3.org/2000/svg">
<path d="M59.125 27.2812V23.1562C59.125 22.7781 58.8156 22.4688 58.4375 22.4688H25.4375C25.0594 22.4688 24.75 22.7781 24.75 23.1562V27.2812C24.75 27.6594 25.0594 27.9688 25.4375 27.9688H58.4375C58.8156 27.9688 59.125 27.6594 59.125 27.2812ZM25.4375 34.8438C25.0594 34.8438 24.75 35.1531 24.75 35.5312V39.6562C24.75 40.0344 25.0594 40.3438 25.4375 40.3438H41.25C41.6281 40.3438 41.9375 40.0344 41.9375 39.6562V35.5312C41.9375 35.1531 41.6281 34.8438 41.25 34.8438H25.4375ZM37.8125 73.6875H17.875V13.1875H66V42.75C66 43.1281 66.3094 43.4375 66.6875 43.4375H71.5C71.8781 43.4375 72.1875 43.1281 72.1875 42.75V9.75C72.1875 8.22891 70.9586 7 69.4375 7H14.4375C12.9164 7 11.6875 8.22891 11.6875 9.75V77.125C11.6875 78.6461 12.9164 79.875 14.4375 79.875H37.8125C38.1906 79.875 38.5 79.5656 38.5 79.1875V74.375C38.5 73.9969 38.1906 73.6875 37.8125 73.6875ZM76.1148 78.1133L68.0969 70.0953C70.0133 67.5602 71.1562 64.3977 71.1562 60.9688C71.1562 52.6156 64.3844 45.8438 56.0312 45.8438C47.6781 45.8438 40.9062 52.6156 40.9062 60.9688C40.9062 69.3219 47.6781 76.0938 56.0312 76.0938C59.1078 76.0938 61.9609 75.1742 64.35 73.6016L72.4883 81.7398C72.6258 81.8773 72.7977 81.9375 72.9695 81.9375C73.1414 81.9375 73.3219 81.8688 73.4508 81.7398L76.1148 79.0758C76.1782 79.0127 76.2286 78.9377 76.2629 78.8551C76.2972 78.7725 76.3149 78.684 76.3149 78.5945C76.3149 78.5051 76.2972 78.4165 76.2629 78.3339C76.2286 78.2514 76.1782 78.1764 76.1148 78.1133ZM56.0312 70.5938C50.7117 70.5938 46.4062 66.2883 46.4062 60.9688C46.4062 55.6492 50.7117 51.3438 56.0312 51.3438C61.3508 51.3438 65.6562 55.6492 65.6562 60.9688C65.6562 66.2883 61.3508 70.5938 56.0312 70.5938Z" fill="#858585"/>
</svg>
